<?xml version="1.0" encoding="utf-8"?>
<!-- Generator: Adobe Illustrator 15.0.0, SVG Export Plug-In . SVG Version: 6.00 Build 0)  -->
<!DOCTYPE svg PUBLIC "-//W3C//DTD SVG 1.1//EN" "http://www.w3.org/Graphics/SVG/1.1/DTD/svg11.dtd">
<svg version="1.1" id="Layer_1" xmlns="http://www.w3.org/2000/svg" xmlns:xlink="http://www.w3.org/1999/xlink" x="0px" y="0px"
	 width="600px" height="600px" viewBox="0 0 600 600" enable-background="new 0 0 600 600" xml:space="preserve">
<g>
	<path fill="#878787" d="M300,588.396c-77.033,0-149.456-29.998-203.928-84.469s-84.47-126.894-84.47-203.927
		c0-77.034,29.998-149.457,84.47-203.928C150.544,41.602,222.967,11.604,300,11.604s149.456,29.998,203.928,84.47
		c54.472,54.471,84.47,126.894,84.47,203.928c0,77.033-29.998,149.456-84.47,203.927S377.033,588.396,300,588.396z M300,24.112
		c-152.126,0-275.89,123.763-275.89,275.889c0,152.125,123.764,275.888,275.89,275.888s275.89-123.763,275.89-275.888
		C575.89,147.875,452.126,24.112,300,24.112z"/>
	<path fill-rule="evenodd" clip-rule="evenodd" fill="#878787" d="M469.502,222.741c3.677-3.056,6.12-7.337,10.532-9.652
		c0.604-3.491,4.664-3.528,5.262-7.02c1.576-1.938,2.383-4.64,5.27-5.267c2.568-4.384,5.723-8.179,8.863-11.992
		c-0.188,0.004-0.385-0.016-0.594-0.085c-0.865-1.006-0.502-3.144,1.653-2.828c0.341,0.226,0.524,0.552,0.585,0.899
		c1.844-2.27,3.651-4.576,5.287-7.056c2.156-2.816,4.188-5.758,6.143-8.775c3.29-2.779,6.749-5.385,10.312-7.892
		c-3.351-5.436-6.894-10.739-10.616-15.904c-0.679,0.649-1.311,1.334-1.852,2.087c-3.05,0.22-4.334-0.739-6.59-1.409
		c-1.116,0.169-2.283,0.261-2.892-0.313c-0.644-0.771,0.456-1.796,0.21-2.194c-0.652-1.034-2.922-1.096-4.33-0.623
		c-1.735-0.863-3.113-0.558-4.74-1.261c-4.223,0.324-6.265-1.691-6.393-4.383c-0.008-0.351,0.26-0.784,0.207-1.102
		c-0.15-0.947-0.98-1.81-1.233-2.824c-0.278-1.128-0.092-2.183-0.411-3.135c-0.399-1.214-0.983-2.482-1.641-3.449
		c-0.578-0.818-1.373-1.197-2.066-2.036c-0.145-3.718-0.497-8.479,2.883-10.653c0.021-0.287-0.251-0.328-0.202-0.626
		c0.558-0.026,1.024-0.229,1.448-0.517c-9.044-9.048-18.737-17.448-29.015-25.111c0.77,1.13,1.571,2.222,2.382,3.298
		c0.158,0.009,0.312,0.011,0.484,0.039c0.742,0.441,1.043,1.201,1.042,1.967c6.386,8.29,12.582,15.833,8.759,28.651
		c-3.578,12.008-7.624,24.531-11.558,37.517c0.106,0.019,0.207,0.008,0.315,0.047c0.159,0.8-0.169,1.229-0.627,1.567
		c-0.059-0.01-0.071-0.032-0.122-0.049C452.545,174.979,449,187.699,446,200.803c0,0.584,0,1.168,0,1.754
		c-4,0.453-2.543-7.87-1.408-8.776c0.316-2.294,0.188-5.438,0.606-9.652c0.212-3.589-0.99-8.461,1.621-9.654
		c0.873-9.45,1.779-18.582,3.447-28.079c2.502-14.307,8.57-31.916-10.566-36.858c-13.332,2.136-21.741,6.488-31.611,7.02
		c6.107-3.598,14.111-6.434,22.062-8.887c-0.049-0.148-0.098-0.302-0.154-0.452c1.057-0.37,2.063-0.574,2.802-0.353
		c3.379-1.012,6.707-1.965,9.833-2.879c0.174-0.738,0.741-1.395,1.807-1.622c1.058-0.23,1.813-0.026,2.294,0.396
		c2.205-0.676,4.275-1.339,6.104-2.001c-0.195-3.665,1.424-4.146-0.004-7.018c-1.181-0.318-1.284-4.313-0.859-6.756
		c-3.414-2.457-6.891-4.831-10.424-7.127c-3.857-0.238-7.18-1.64-7.425-4.614c0.005-0.006,0.007-0.014,0.011-0.018
		c-8.763-5.292-17.848-10.103-27.239-14.362c-1.348,4.703-5.582,7.68-4.086,13.568c-4.813,4.438-9.69,6.14-17.554,3.512
		c0.599-7.303,2.474-13.331,9.656-14.044c-0.016-2.293,1.299-4.557,2.875-6.946c-2.761-1.128-5.538-2.222-8.344-3.258
		c-0.759,0.527-1.596,0.979-2.433,1.429c-1.474,7.593-6.523,11.613-7.897,19.308c-4.343-0.336-5.01-4.35-7.897-6.143
		c2.162-4.564,2.755-10.703,8.777-11.409c-0.636-2.963,0.075-4.581,0.777-6.208c-5.265-1.738-10.601-3.322-16.007-4.731
		c-0.901,0.143-1.703,0.285-2.326,0.409c-22.703,53.789-73.117,86.278-124.611,114.083c-18.432-11.405-36.755-22.92-50.9-38.613
		c-16.194-5.674-33.564-15.394-49.215-22.777c-0.63,0.789-1.613,1.192-3.27,0.907c0.092-1.441-0.827-1.905-1.153-2.943
		c-0.505-0.227-1.015-0.463-1.517-0.683c-2.594,2.105-5.148,4.256-7.658,6.456c6.791,1.935,13.095,3.997,20.688,6.756
		c3.553,2.003,5.88,5.236,8.777,7.896c4.917,6.489,12.56,10.256,17.552,16.675c25.461,5.668,44.762,12.918,57.92,28.957
		c-0.063,2.586-2.639,1.404-4.904,3.512c-3.448,2.691-1.146,11.328-3.146,14.922c0,1.323,0,2.646,0,3.97
		c0,0.197,0.822,0.647,1.727,0.558l0.024,1.853L221,187.85c0,0.807,0,1.615,0,2.423c-2,4.983,0.791,12.269-1.243,15.797
		c0.028,4.155-0.904,9.583-1.058,15.794c-0.549,2.666,1.034,7.559-0.968,8.777c-4.273-0.224-2.285-4.803-3.556-6.146
		c-2.02-2.076-0.337-7.873-0.898-11.405c-1.445-9.827-1.601-18.177-2.518-29.838c-2.001-1.216-0.758-6.108-0.758-8.777
		c0-2.924,0-5.849,0-8.774c-2-3.001-6.354-3.138-7.149-7.021c-32.818-4.477-61.732-26.001-85.191-47.388
		c1.82,9.752,7.617,22.426,9.624,30.714c0.766,1.282,0.68,3.399,3.495,2.633c-0.713,3.035,1.627,3.705-0.01,5.265
		c10.895,6.393,20.411,11.301,31.591,14.921c-1.055,4.504-3.712,7.407-5.27,11.407c-9.009-2.691-17.605-5.8-19.308-15.797
		c-3.287,1.546-2.981,4.231-1.705,7.024c3.337,1.197,6.211,3.729,6.244,7.117c4.244,1.521,8.313,3.217,11.258,6.041
		c0.169,5.22-7.177,5.347-7.022,7.901c-3.652-1.026-4.455-5.082-8.074-6.146c1.616,23.924,4.518,60.481,23.518,75.475
		c0,0.586,0,1.166,0,1.752c0,1.385,2.414,0.688,1.93,2.633c-2.51-0.998-4.178-2.752-5.176-5.264
		c-7.719-3.983-10.098-13.262-19.262-15.799c-0.768-3.104-0.086-2.155-0.856-5.264c-2-1.216-0.315-6.108-0.865-8.775
		c-0.184-9.72-2.345-13.908-1.751-25.449c-5.236-7.376-8.305-15.983-14.039-24.571c-0.381-1.965-4.325-0.356-6.141-0.878
		c0.088-5.646-3.312-8.284-7.502-9.654c2.374-2.893-0.338-10.234,5.662-9.652c0-3.51,0-7.021,0-10.529
		c0-1.312,0.796-3.239-0.397-3.513c0.018,2.066-1.27,2.586-0.637,5.266c-9.292-1.541-14.129-8.244-19.042-14.355
		c-1.655,2.012-3.212,4.054-4.807,6.116c2.954,2.557,6.051,5.306,6.512,9.994c4.287,0.684,7.664,2.299,10.547,4.39
		c0.069,0.37,0.059,0.659,0.047,0.95c0.957,0.715,1.182,1.708,2.17,2.413c-0.191,1.207-1.179,0.43-1.537,1.215
		c-0.634-0.783-1.414-0.896-2.352-1.132c-0.921,0.587-1.853,1.163-1.83,2.695c-2.745,4.98-6.428-2.924-8.773-4.086
		c-2.748-3.395-6.765-5.348-8.772-9.348c-0.271,0-0.542,0-0.814,0c-14.163,20-25.683,40.852-34.129,63.811
		c0.151-0.021,0.279-0.039,0.446-0.044c2.15,2.203,2.783,3.835,0.511,6.255c-1.239,0.108-2.264,0.019-3.08-0.276
		c-8.461,24.828-13.321,51.362-13.936,78.955c12.539,15.011,36.502,47.38,36.96,50.08c2.032,2.354,4.11,4.577,3.51,9.562
		c2.783,1.402,1.859,7.818,0.878,10.49c11.265,5.979,22.974,16.796,28.959,28.937c1.861,3.778,2.648,10.561,5.267,14.909
		c2.71,4.503,7.593,7.556,10.532,11.403c3.123,4.094,5.68,9.196,7.896,14.033c14.206,31.014,27.597,61.893,41.248,93.023
		c0.729,1.664,1.483,3.307,2.237,4.952c32.166,17.574,68.389,28.644,106.908,31.449c2.293-25.346,0.697-56.566-7.35-75.894
		c3.438-7.094,6.825-14.237,8.773-22.814c2.396-0.642,1.773,1.742,3.516,1.752c0.479,15.391,5.39,31.205,8.773,41.248
		c-4.573,12.314,1.038,24.477,0,35.979c-0.506,5.613-5.527,13.052-8.736,20.044c3.609,0.195,7.244,0.307,10.89,0.355
		c9.742-25.011,19.897-49.603,29.438-74.812c2.996-2.269,6.797-3.729,10.531-5.263c-9.277-17.936,3.111-30.143,11.411-43.879
		c6.426-10.627,10.318-20.855,14.915-30.714c0.035-3.187-0.494-6.929,1.754-7.899c2.778-11.387,1.571-21.99,5.269-33.347
		c0.651-1.993,3.699-3.876,5.263-7.021c1.572-3.146,1.888-7.691,3.516-10.531c1.161-2.035,4.146-3.219,5.262-5.268
		c1.865-3.43,1.783-7.41,3.51-10.527c0.603-1.087,2.875-0.843,3.514-1.757c1.79-2.565,3.457-7.254,5.264-10.53
		c3.491-6.331,6.396-12.779,10.531-19.309c2.777-4.393,4.648-8.127,7.018-12.282c1.875-3.276,6.931-5.855,8.777-8.777
		c1.299-2.056,0.086-6.246,3.514-7.02C423.532,246.438,452.046,239.43,469.502,222.741z M512.653,158.785
		c0.604,0.12,0.877,0.48,1.234,0.785c-0.283,0.521-0.307,1.227-1.234,1.255C511.972,160.456,511.717,159.099,512.653,158.785z
		 M508.325,169.132c0.468,0.883-0.084,1.506-1.244,1.567l-0.414-0.15C506.36,169.608,506.727,168.985,508.325,169.132z
		 M500.901,180.569c0.176,1.439-0.342,2.357-1.648,2.665C497.703,182.45,498.55,179.682,500.901,180.569z M493.067,158.632
		c0.302-0.246,1.063-0.143,1.655-0.16c-0.157,0.48,0.563,0.297,0.411,0.785C494.576,160.249,492.564,159.294,493.067,158.632z
		 M490.604,180.415c0.066,0.938,0.066,1.836-1.041,1.885c-0.256-0.595-0.89-0.892-0.824-1.73
		C489.37,180.386,489.845,180.099,490.604,180.415z M487.095,176.186c2.313,1.558,0.41,5.18-1.857,6.114
		c-1.066-0.077-2.561,0.167-3.307-0.158C480.388,179.396,483.8,173.957,487.095,176.186z M481.52,137.312
		c0.653-0.071,0.814,0.223,1.251,0.313c0,0.369-0.361,0.459-0.213,0.941c-0.342,0-0.691-0.005-1.038,0
		C481.229,138.332,481.229,137.534,481.52,137.312z M482.358,150.323c0.271,0.46,0.293,1.137-0.211,1.409
		c-0.508,0.017-0.636-0.24-1.031-0.31C481.056,150.694,481.476,150.334,482.358,150.323z M484.622,195.15
		c1.617,1.637,0.283,5.383-2.264,5.33C478.531,200.389,480.921,193.776,484.622,195.15z M477.619,182.455
		c-1.482-0.339-0.868-2.869,1.235-2.04C478.967,181.494,478.712,182.3,477.619,182.455z M478.854,155.34
		c0.092,0.489-0.494,1.267-1.453,1.719C474.023,156.73,478.376,152.755,478.854,155.34z M473.702,198.125
		c3.151-0.039,1.476,4.917-0.831,4.859C469.968,202.916,470.265,198.168,473.702,198.125z M462.151,154.713
		C461.021,151.195,466.138,154.099,462.151,154.713L462.151,154.713z M456.38,202.517c0.338,0.474,0.82,0.843,0.627,1.718
		C455.295,206.947,452.076,202.256,456.38,202.517z M455.757,219.594c1.73,0.57,2.744-1.523,3.918-2.344
		c1.709,0.121,2.437-0.522,2.477-1.26c1.957,0.488,5.785-1.066,7.424,0.633l0.209-0.313c0.287,0.559,0.538,1.156,1.026,1.561
		c-0.684-0.272-0.327,0.692-0.201,0.159c0.195,0.729-1.7,1.218-1.655,2.35c-2.066,0.24-3.677,1.329-6.592,1.729
		c-1.473,0.199-2.926-0.238-4.329-0.161c-1.779,0.098-3.524,1.395-4.739,0.322C452.493,220.152,455.248,220.718,455.757,219.594z
		 M452.052,219.753c-0.494,0.565-0.627,1.396-1.646,1.571C447.927,220.311,451.243,217.195,452.052,219.753z M447.927,208.791
		c1.055,1.393-0.145,3.14-1.641,3.909C444.114,212.199,445.028,208.01,447.927,208.791z M444.849,135.75
		c0.283,0.011,0.574,0.021,0.613-0.162c0.274,0.047,0.168,0.395,0.201,0.627l-0.201-0.31c-0.227,0.038-0.137,0.31-0.414,0.31
		c-0.1,0.501,0.631,0.354,0.414,0.948c-0.277,0.049-0.33,0.269-0.613,0.306c-0.656,0.077-0.548-0.424-1.043-0.469
		C443.963,136.438,445.072,136.602,444.849,135.75z M442.57,188.726c0.274,0.158,0.764,0.154,1.026,0.308
		c-0.548,0.102-0.57,0.614-1.23,0.627C441.913,189.336,442.324,188.962,442.57,188.726z M440.72,154.247
		c0.503-0.031,0.863,0.075,1.026,0.308c-0.075,0.402-0.636,0.456-1.026,0.627C440.438,154.981,440.438,154.437,440.72,154.247z
		 M444.226,95.934c0.696,0.114,1.26,0.133,2.061,0.475c-0.21,0.676-0.593,1.218-0.824,1.881
		C443.477,98.434,443.283,96.75,444.226,95.934z M427.331,94.053c-0.128,0.991-2.061,0.674-1.864-0.312
		C426.289,93.372,426.688,93.853,427.331,94.053z M424.44,89.034c0.267,0.053,0.171,0.395,0.199,0.631
		c0.188-0.12,0.475-0.175,0.827-0.161c0,0.436-0.976,0.377-1.233,0.161C424.198,89.38,424.485,89.333,424.44,89.034z
		 M421.569,80.619c0.159,0.332,0.332,0.674,0.595,1.049c-0.353,0.88-0.786,1.698-1.552,2.258
		C420.918,82.841,421.242,81.737,421.569,80.619z M413.364,113.135l0.149,0.041l-0.232,0.306L413.364,113.135z M179.12,127.439
		c-2.746-0.494-0.164-5.039,1.283-3.07C180.849,126.291,178.228,125.08,179.12,127.439z M84.582,242.486
		c0.122-0.518,0.623-0.623,0.636-1.232c-0.324-0.533-1.021-0.68-1.171-1.346c-0.228-0.01-0.45-0.016-0.706-0.057
		c0.248-1.238-0.086-1.922-1.199-1.873c0.969-0.705,1.579-1.755,3.17-1.818c0.235,1.177,1.316,1.58,1.181,3.135
		c-0.171,0.119-0.357,0.221-0.556,0.311C86.277,241.018,86.689,242.305,84.582,242.486z M94.485,249.478
		c0.834-0.823,2.72-0.587,4.405-0.558l-0.063,3.75c-1.123,0.342-2.6,0.272-3.165,1.188
		C94.538,253.094,95.216,250.617,94.485,249.478z M97.93,314.22c-0.062-1.075-0.306-2.097,0.638-3.559
		C106.546,307.941,106.811,319.625,97.93,314.22z M107.901,293.213c1.299-2.406,3.242-3.123,5.827-2.203
		C116.675,295.734,109.701,298.608,107.901,293.213z M114.716,240.426c-1.586,2.854-7.95-0.281-5.676-3.522
		C110.782,235.849,115.848,237.648,114.716,240.426z M116.524,392.977c0.912-2.809,2.237-4.604,4.367-4.291
		C126.35,392.074,120.396,396.436,116.524,392.977z M131.712,235.805c-1.847-2.721-5.752-3.445-8.686-5.119
		c0.531-1.755-0.859-1.616-0.584-3.103c2.034-1.733,3.62-3.896,7.578-3.628C131.665,226.469,136.952,234.31,131.712,235.805z
		 M379.992,84.964c4.065,1.195,9.11,1.417,10.532,5.265c-4.194,3.999-6.898,9.486-12.287,12.287
		c0.173,8.569-2.934,10.41-5.27,17.552c-5.182,0.084-6.016,4.512-10.531,5.263c-3.291-1.977-7.438-3.086-8.771-7.02
		c7.271-2.089,9.99-8.73,15.795-12.287C368.518,97.626,381.745,94.563,379.992,84.964z M355.42,131.473
		c-3.384,8.185-5.908,13.888-16.674,13.165c-6.385,5.022-10.446,12.374-16.677,17.554c0.202-4.296-2.697-5.493-3.508-8.777
		c4.142-5.801,10.825-9.066,17.55-12.287C336.812,132.073,348.879,121.422,355.42,131.473z M355.42,91.106
		c-0.259-9.324,5.636-12.501,10.532-16.674c3.416,1.555,4.699,5.244,8.777,6.142c-1.381,5.18-5.821,12.204-8.777,18.43
		c-9.479,2.027-12.407,5.568-15.801,14.044c-3.492-0.604-3.526-4.662-7.018-5.27C343.352,98.349,349.174,94.515,355.42,91.106z
		 M309.135,135.862c12.285-3.799,15.566-16.935,25.776-22.814c4.913,0.055,6.208,3.891,9.816,5.263
		c-3.152,3.575-4.643,8.736-11.327,8.774c-2.024,1.786-2.317,5.251-2.592,8.777c-3.532,0.271-6.343,1.897-9.409,2.631
		c-3.479,2.08-5.399,6.385-9.399,7.901c0,0.582,0,1.17,0,1.753C310,145.757,308.221,140.046,309.135,135.862z M304.522,173.597
		c-5.662,0.777-5.793,7.083-11.412,7.901c-5.835,0.892-9.341,4.112-13.166,7.02c-3.076-2.235-4.615-6.462-3.508-10.532
		c15.941-3.365,20.491-18.121,36.862-21.062C315.71,164.915,315.433,174.445,304.522,173.597z M265.904,163.946
		c4.431,0.623,4.907-2.702,9.658-1.755c4.994-8.462,16.193-10.455,22.552-17.554c2.049,2.046,3.885,4.094,5.885,6.144
		c0,0.585,0,1.171,0,1.756c-4,4.135-8.239,10.226-14.664,13.162c-6.401,2.663-11.748,6.256-20.05,7.02
		C270.204,167.71,265.243,168.7,265.904,163.946z M243.09,194.66c12.37,1.449,13.152-12.226,26.326-11.409
		c-0.197,4.294,2.7,5.49,3.513,8.774c-10.44,9.814-27.408,14.518-40.369,19.307c-0.556-2.954-2.521-4.502-1.757-8.775
		C229.821,198.917,237.071,191.299,243.09,194.66z M228.989,181.75c-0.452-1.425-0.625-2.708,0.045-3.705
		c1.745,0.03,3.21,0.976,4.047,2.29c6.762-2.038,14.061-3.54,15.275-11.126c10.283-3.447,15.339-1.935,17.548,7.899
		c-6.434,1.496-14.166,2.706-19.303,9.654c-9.082-0.599-13.946,3.023-19.309,6.142c-1.813-1.988-2.96-4.649-3.51-7.898
		C225.171,183.572,226.987,182.568,228.989,181.75z M165.864,167.454c8.663,0.989,14.757,4.55,20.183,8.776
		c2.92,0.884,9.547-1.939,9.652,1.755c5.685-0.419,5.379,5.153,9.654,6.143c-0.739,3.357-1.147,7.046-0.877,11.409
		c-3.423-3.014-8.588-4.281-10.53-8.774c-14.952,3.235-24.674-3.952-33.349-9.654C161.07,172.606,164.291,170.855,165.864,167.454z
		 M155.331,193.78c-0.739-5.556,3.241-8.602,3.512-10.529c10.371,8.367,26.641,10.678,42.123,15.794
		c1.77,6.452-4.261,5.103-3.51,10.532c-4.923,0.827-6.105-2.087-9.652-2.635c-4.102-0.578-11.059,1.7-11.409-2.628
		C174.013,195.503,163.267,194.707,155.331,193.78z M181.175,217.943c-1.674,0.223-3.162,0.982-5.566-0.607
		c-1.299-2.441,0.959-4.66,2.936-5.414C180.821,213.406,183.372,214.785,181.175,217.943z M160.791,221.361
		c1.304-0.203,1.655,0.455,2.496,0.672c0.229,1.314-0.46,1.645-0.657,2.476c-0.818-0.151-0.619-1.229,0.018-1.237
		C162.904,221.78,159.773,223.556,160.791,221.361z M161.866,231.979c-0.375-2.291,0.464-3.316,1.323-4.338
		c3.491-0.309,5.104,1.188,6.861,2.598C168.345,232.607,164.766,234.218,161.866,231.979z M164,291.715
		c0.777,0.85,2.695,0.676,4.356,0.704c-0.016,1.019-0.032,2.057-0.051,3.095c-1.187,1.43-3.898,1.313-4.403,1.779
		C161.188,296.141,162.375,293.177,164,291.715z M144.097,457.904c0.274-1.873,1.556-1.189,2.064-2.464
		c1.344,0.224,4,1.522,3.887,3.221C149.115,461.551,144.954,459.83,144.097,457.904z M142.387,400.727
		c0.45-1.461,1.16-2.172,1.856-3.016C150.233,398.002,145.418,404.367,142.387,400.727z M147.122,437.539
		c0.175-0.394-0.348-0.525-0.615-0.754c0.035-0.698,1.405-1.865,0.499-2.201C150.452,431.904,151.69,439.756,147.122,437.539z
		 M150.815,453.714c-0.31-0.757,0.309-2.138,1.085-2.402c1.036,0.401,1.59,0.965,1.661,1.71
		C153.177,454.581,152.032,454.223,150.815,453.714z M141.908,358.211c2.249,0.643,3.882-0.316,5.491-1.379
		c4.882-0.033,9.557,2.781,12.087,5.456c0.008,1.67-1.276,3.802,0.8,4.683C154.362,372.436,141.894,365.518,141.908,358.211z
		 M161.553,491.285c-0.141-0.619-0.065-1.303,0.497-2.187c0.736,0.627,0.689,1.517,2.056,1.89
		C163.467,491.66,162.55,491.578,161.553,491.285z M164.68,490.771c-2.02-0.453-1.484-1.873-3.273-2.437
		c0.001-0.004,0.003-0.007,0.004-0.011c-1.331-0.036-1.761-0.661-2.476-1.648c0.381-1.039,1.189-0.951,1.704-1.629l1.61,0.725
		c0.191,0.495,0.004,1.131-0.297,1.809c0.628-0.255,1.554,0.291,1.979-0.506C164.798,488.08,165.423,489.166,164.68,490.771z
		 M167.575,494.42c0.041-1.346,0.686-1.718,1.674-2.617l2.007,0.903c0.253,0.692-0.173,1.637-0.674,2.585
		C169.128,495.39,169.326,494.722,167.575,494.42z M174.782,517.172c0.191,0.818-0.188,1.717-1.407,2.033
		c-1.586-0.4-2.015-1.241-2.453-2.068c0.256-0.714,0.796-0.661,1.081-1.354c-0.175-0.977,0.055-2.104,0.351-3.251l-1.229-0.554
		c0.336-0.896,1.512,0.475,2.198,0.521c-0.991,1.144-0.026,1.547,1.073,1.92c-0.171,0.691-0.687,0.508-0.947,1.008
		c-0.13,0.663,0.793,0.051,0.647,0.697c0.024,0.021,0.05,0.039,0.072,0.06c0.521,0.004,0.712-0.872,1.048-1.397
		c0.051-0.412-1.312-1.864-1.443-1.137c-0.055-1.829,2.555,0.941,2.468,2.076C175.897,516.582,175.332,516.867,174.782,517.172z
		 M174.538,302.576c2.911-0.396,3.037,2.967,0.759,3.707C173.825,305.482,173.316,304.342,174.538,302.576z M195.198,451.111
		c1.556-1.029,2.406-2.516,3.866-2.121C205.92,450.844,196.429,459.105,195.198,451.111z M204.674,482.803
		c0.139-0.464,0.411-0.674,0.77-0.614c0.271-0.749-1.271-0.851-1.259-1.513c0.69-0.548,1.495-0.725,2.109-1.464
		c0.568,0.692,0.748,1.511,1.479,2.117C206.736,481.753,206.382,484.062,204.674,482.803z M208.88,411.465l0.902-1.992
		c0.982,0.514,1.526-0.064,2.38,0.114c1.94-0.354-2.854,0.583-0.536,1.193c-0.843,0.582-1.111,1.563-0.905,1.999
		C209.397,413.883,210.586,411.322,208.88,411.465z M210,473.186c0.509-1.01,1.29-1.291,2.333-0.869
		c0.33,0.76-0.289,2.123-1.075,2.384C210.017,474.521,210.783,473.555,210,473.186z M211.453,497.914
		c-0.158-0.7,0.289-1.653-0.499-2.134c0.39-0.786,1.354-0.032,1.554-1.254c1.759,0.354,0.655,1.749,2.456,2.064
		C214.005,497.613,213.082,498.682,211.453,497.914z M222.224,536.471c0.535-0.878,1.188-1.547,2.097-1.449
		c1.633,0.488,0.619,1.994,1.126,2.902C224.491,539.256,222.329,537.411,222.224,536.471z M232.33,505.431
		c0.22-2.091,1.091-3.009,2.618-3.652c1.038,0.276,0.55,1.126,1.847,1.308C235.561,504.522,234.651,506.807,232.33,505.431z
		 M258.011,400.888c-0.588,2.347-1.614,2.759-2.635,0.878c-13.675-6.285-17.856-26.492-28.083-35.979
		c-15.294-14.188-33.888,11.755-52.653,12.284c3.424-22.511,29.713-42.016,21.06-66.692c-6.026-17.2-23.782-32.029-30.712-49.147
		c18.26,5.432,36.828,10.563,55.285,15.797c9.472-13.344,14.928-30.704,24.572-43.879c6.224,3.699,6.03,15.209,7.02,23.697
		c1.197,10.246-0.061,33.885,7.022,38.611c3.996,2.664,7.999,2.467,12.284,4.389c10.63,4.762,17.604,15.373,27.207,21.061
		c-12.261,7.926-25.484,14.889-39.491,21.063C254.878,355.715,261.263,387.813,258.011,400.888z M298.378,449.153
		c-11.09-0.267-13.272,7.736-15.799,16.037c-2.134-4.912-8.438-9.19-11.408-18.19c-0.584,0-1.17,0-1.755,0
		c2.091-2,9.661-1.12,15.797-1.12C291.534,445.88,300.375,444.846,298.378,449.153z M304.116,511.258
		c0.41-1.022,1.204-0.949,1.721-1.621C307.146,510.402,305.604,512.646,304.116,511.258z M307.199,366.756
		c1.216-0.504,1.565,0.826,2.256,1.488C308.164,368.99,306.456,368.836,307.199,366.756z M331.211,345.817
		c-1.456-0.446-2.183-1.177-3.038-1.856c0.831-0.994-0.107-1.295,0.502-2.211c1.335-0.379,2.525,1.282,3.442,2.064L331.211,345.817z
		 M359.301,348.436l-0.442-0.443c-0.105-1.201-0.193-2.387-0.276-3.559c0.696,0.725,1.612,1.291,2.173,2.121
		C360.016,346.99,360.755,348.537,359.301,348.436z M351.91,258.721c-0.684,6.342-2.345,11.7-5.269,15.799
		c1.19,5.289-2.04,6.148-1.753,10.527c-14.622,12.586-30.065,24.348-44.756,36.859c-2.069-0.178-1.075-5.688-0.878-7.021
		c1.948-13.235,7.757-29.484,8.775-43.878c17.077-5.068,28.368-7.014,36.858-19.307c1.661-2.409,1.753-6.298,3.508-8.777
		c2.14-3.012,7.305-6.004,8.776-8.775c0.387-0.719-0.563-2.958,0-3.508c5.357-5.242,15.969-3.365,21.939-7.02
		c7.961,0.883,6.758-2.423,14.92-1.758C380.458,234.277,360.355,239.432,351.91,258.721z M395.376,235.742
		c-0.369,0.587-0.75,1.145-1.332,1.563c0.156-0.389,0.322-0.775,0.462-1.162c0.151,0,0.234-0.082,0.257-0.4l-0.071-0.068
		l0.122-0.301c0.338,0.053,0.644,0.197,0.77,0.529L395.376,235.742z M398.882,230.73c-0.721,0.305-0.917-0.535-1.035-0.158
		c-0.023-0.229,0.204-1.619,1.242-1.572C399.329,229.66,399.305,230.222,398.882,230.73z M407.575,144.782
		c-0.082-1.629-0.067-3.222,0.028-4.789c0.562,0.175,1.111,0.562,1.581,1.231C409.276,142.662,408.668,144.11,407.575,144.782z
		 M412.067,243.268c-0.119-0.509,0.141-0.729,0.211-1.102c0.321-0.01,0.785,0.08,0.824-0.152
		C414.045,242.361,413.251,243.541,412.067,243.268z M412.69,159.418c-0.643,0.114-0.406-0.434-1.025-0.319
		c0-0.773,0.439-1.22,1.025-1.56c0.412,0.25,0.955,0.407,1.027,0.933C413.259,158.699,413.318,159.311,412.69,159.418z
		 M418.247,236.368c-0.771-0.157-0.601-0.706-0.201-1.094c0.173,0.079,0.342,0.159,0.612,0.155
		C418.891,236.016,418.155,235.879,418.247,236.368z M420.935,192.016c-0.929,0.021-0.929-0.758-0.621-1.25
		C421.183,190.781,421.071,191.648,420.935,192.016z M439.276,142.799c0.375,0.184,0.156,0.818,0.409,1.091
		c-0.424-0.044-0.627-0.896-0.619,0c-0.308-0.126-0.293-0.496-0.413-0.783L439.276,142.799z M428.357,134.49
		c0.802-0.079,0.845,0.405,1.438,0.475c-0.195,0.578-0.629,0.979-1.438,1.093C427.841,135.376,428.146,135.181,428.357,134.49z
		 M424.64,122.741c-0.657-0.137-1.517-0.101-2.064-0.32c-0.216-0.694,0.358-0.779,0.412-1.252c0.883,0.317,1.048-0.448,1.864,0.159
		C424.966,121.935,424.485,122.094,424.64,122.741z M425.467,223.055c-0.353-0.547-0.009-1.185,0.822-1.26
		c0.157,0.145,0.228,0.352,0.204,0.625C427.069,222.713,426.049,223.116,425.467,223.055z M429.181,184.809
		c-2.212,0.146-2.254-3.278,0.414-2.828C430.237,183.028,430.401,184.145,429.181,184.809z M435.359,177.287
		c0.552,0.843,0.336,2.13-1.034,2.342C433.164,178.976,433.254,176.636,435.359,177.287z"/>
	<path fill-rule="evenodd" clip-rule="evenodd" fill="#878787" d="M441.367,477.234c4.894-23.812,8.577-51.336,11.63-79.802
		c-1.598,1.765-3.57-2.103-1.153-2.13c0.985-0.006,1.124,0.743,1.208,1.611c2.492-23.302,4.564-47.212,6.52-70.248
		c-0.217-0.99-0.215-1.961-0.099-2.678c0.108-0.109,0.232-0.193,0.351-0.289c0.889-10.493,1.759-20.805,2.637-30.755
		c0.35-3.031-3.791-6.075-1.75-7.897c10.613-3.241,24.017-9.43,35.112-14.917c2.549,2.425,5.772,4.174,7.899,7.021
		c-3.35,0.244-6.244,1.809-9.008,3.793c-0.158,0.404,0.381,0.862,0.009,0.885c-0.278,0.33,0.022-0.175-0.201-0.477
		c-0.587,0.159,0.291,0.42-0.218,0.631c-0.227-0.076-0.38-0.211-0.482-0.385c-3.102,2.34-6.08,5.092-9.4,6.961
		c-4.598,2.584-14.686,1.846-14.042,8.777c8.845-3.154,24.444-7.152,34.227-12.289c0.386,1.022,0.577,2.238,0.745,3.479
		c0.028,0.021,0.054,0.022,0.081,0.045c0.015,0.139-0.015,0.242-0.021,0.366c0.224,1.723,0.417,3.476,0.95,4.889
		c-10.652,4.852-20.286,10.717-30.715,15.793c4.354,16.682,34.241,3.638,49.145-1.754c12.228-4.424,27.653-10.322,35.982-15.794
		c0.297-0.196,0.613-0.411,0.922-0.623c-0.342-9.335-1.17-18.544-2.459-27.607c-2.044-1.49-3.009-4.06-5.484-5.12
		c0.871-2.16,2.247-3.484,3.966-4.414c-0.411-2.287-0.855-4.561-1.323-6.826c-1.931,1.235-3.725,2.604-5.271,4.221
		c-1.939-2.165-1.957-6.24-3.516-8.777c1.363-3.012,3.151-5.598,6.115-7.006c-6.641-26.05-17.166-50.542-30.907-72.844
		c-3.563,2.507-7.021,5.112-10.312,7.892c-1.224,3.75-2.398,7.549-6.143,8.775c-1.636,2.479-3.443,4.786-5.287,7.056
		c0.156,0.919-0.561,2.002-1.645,2.014c-3.141,3.813-6.295,7.608-8.863,11.992c-1.576,1.936-2.382,4.637-5.27,5.267
		c-0.598,3.491-4.658,3.528-5.262,7.02c-2.317,4.412-6.598,6.857-9.652,10.532c-27.924,41.521-57.366,81.822-81.285,127.425
		c0.813,1.024,1.443,2.485,2.573,3.188c1.674,2.911,3.048,6.051,5.766,8.156c-0.383,0.704,0.981,1.311,2.269,1.254
		c1.519,1.612,2.059,3.672,2.266,5.955c-0.531,0.535-0.902,1.191-1.653,1.559c-1.396-0.104-3.025-1.63-4.118-0.932
		c-0.782-1.529-3.014-3.15-1.646-5.332c-2.209-3.824-4.923-7.317-5.983-11.287c-0.212-0.157-0.364-0.344-0.533-0.521
		c-3.209,6.182-6.435,12.449-9.419,18.845c12.688,8.862-1.617,50.996,0.383,70.202c0,7.605,0,15.213,0,22.819
		c0,1.46,0,2.924,0,4.386c2,4.11,0.422,11.983,0.996,17.552c2.016,1.79,1.004,7.286,1.004,10.532c0,3.512,0,7.02,0,10.527
		c2,0.445-1.898,31.975-2.521,44.662c21.211-6.822,41.438-16.251,59.929-27.916C440.853,512.508,439.207,487.752,441.367,477.234z
		 M503.793,207.529c-1.019-0.21-1.649-2.16,0.413-1.719C504.692,206.458,504.601,207.137,503.793,207.529z M507.71,291.698
		c-0.736-2.239-0.207-4.951,3.49-4.698c0.777,0.83,1.803,0.689,2.688,1.25C512.46,289.879,510.996,293.877,507.71,291.698z
		 M550.778,284.491c-0.599-0.045-0.635,0.354-1.23,0.31c-0.187-0.338-0.539-0.537-0.423-1.096c0.859-0.156,0.882-0.588,1.864-0.317
		C550.882,284.082,550.921,283.904,550.778,284.491z M548.487,260.476c2.479,2.2,2.783,6.578,5.264,8.776
		c-5.816,8.814-20.926,8.327-26.327,17.551c-7.755,3.053-14.138-1.918-13.166-7.019C529.7,277.378,539.998,269.83,548.487,260.476z
		 M535.321,249.066c4.088,0.006,4.715,3.471,6.143,6.146c-11.234,6.314-24.556,10.552-33.349,19.307
		C500.332,255.762,528.477,258.926,535.321,249.066z M529.346,227.594c0.454,0.38,0.448,1.123,0.411,1.887
		c-0.696,0.041-1.183,0.24-2.068,0.15C526.687,228.694,527.839,227.563,529.346,227.594z M523.569,237.156
		c2.098,0.278,2.505,3.506-0.824,3.6C521.153,239.893,521.75,236.91,523.569,237.156z M515.324,203.611l-0.411,0.32
		c-0.584-0.029-0.373-0.662-0.411-1.102C514.681,203.156,515.386,203.105,515.324,203.611z M512.038,186.686
		c0.436,0.881,1.617,0.678,2.26,1.413c1.666,1.889,0.07,5.067-1.645,6.421c-0.959,0.18-2.586,0.285-3.506,0
		c-0.926-0.488-0.396-2.096-1.645-2.35C507.694,189.353,509.827,187.99,512.038,186.686z M506.053,192.322
		c-0.169-0.588,0.921-0.547,1.229-0.307c-0.674,1.665-0.375,4.122-1.021,6.109c-0.139,0.454-0.707,0.67-1.03,1.26
		c-0.87,1.557-0.615,3.213-3.093,2.973C497.962,198.928,502.787,194.561,506.053,192.322z M497.81,197.813
		c1.759,1.346,0.09,3.842-1.852,3.759C495.35,200.178,495.067,197.549,497.81,197.813z M497.6,211.914
		c-1.012-0.158-1.837-0.477-2.667-0.775C493.962,206.756,500.731,208.93,497.6,211.914z M495.134,243.422
		c0.266-1.006,1.064-1.815,1.439-2.821c0.21-0.542-0.045-1.185,0.21-1.725c0.246-0.515,0.914-0.854,1.228-1.402
		c1.177-2.021,1.82-3.881,3.504-5.489c0.713,0.062,0.263,0.424,1.034,0.152c-0.165,3.676-1.171,6.723-2.673,9.723
		c3.461,2.357,2.815,7.891-2.48,7.516c-0.883,0.375-1.006,1.332-2.056,1.574c-1.026-0.116-1.287-0.801-1.858-1.256
		C493.239,247.234,494.576,245.52,495.134,243.422z M482.974,239.66c-0.42-0.484,0.09-0.775-0.416-1.25
		C483.104,238.52,483.409,239.287,482.974,239.66z M459.473,296.559c-0.672-0.088-0.3-0.595-0.204-0.939h0.615
		c0.174,0.184,0.279,0.42,0.201,0.776C459.894,296.304,459.339,296.031,459.473,296.559z M460.085,255.807
		c-0.5,0.291-0.963,0.613-1.637,0.78C456.447,255.491,460.128,253.293,460.085,255.807z M453.908,376.178
		c0.075,1.1-1.115,1.246-1.856,1.727c-0.458-0.223-0.843-0.501-1.234-0.786C451.027,375.493,452.667,375.111,453.908,376.178z
		 M451.641,268.346c-0.062,0.748-0.542,1.67-1.849,1.88c-0.203-0.325-0.084-1.122-0.414-1.725
		C450.008,267.963,450.93,267.687,451.641,268.346z M445.048,265.997c0.615,0.102-0.199,0.333,0,0.627l0.414-0.475
		c0.637,0.255-0.418,0.495-0.414,0.788c-0.171-0.086-0.346-0.171-0.61-0.156C444.158,266.154,445.028,266.4,445.048,265.997z
		 M439.066,327.434c1.608-2.711,5.483-4.227,9.07-2.188c-0.43,0.807,0.486,1.23,0.629,2.032c0.552,3.388-3.123,7.563-6.81,7.053
		C438.884,333.903,437.666,329.803,439.066,327.434z M413.514,325.08c-0.171,0.657-0.471,1.213-1.235,1.41
		c-0.787,0.076-0.652-0.549-1.027-0.779C411.781,325.071,412.429,324.529,413.514,325.08z M411.042,353.141
		c-0.201,0.682-0.488,1.31-1.857,1.094c-0.164-0.501-0.605-0.79-0.62-1.407C409.647,352.424,410.452,352.444,411.042,353.141z
		 M404.233,398.117c-3.549,0.219-2.763-3.484-0.402-4.386C406.451,394.109,405.702,397.188,404.233,398.117z M406.085,341.852
		c-1.82-1.73-0.697-6.111,2.277-5.799C410.165,338.317,407.532,340.564,406.085,341.852z M422.372,377.438
		c-2.83,0.283-5.654-1.948-6.379-3.921c-0.321-0.865,0.075-1.813-0.211-2.665c-1.039-3.059-4.313-5.17-4.74-7.525
		c-0.092-0.231-0.263-0.225-0.613-0.293c0.006-2.403-2.825-5.033-2.479-7.033h1.026c2.59,4,5.57,7.269,7.631,11.422
		c1.439,0.839,2.785,2.725,3.917,3.281C421.378,372.082,422.942,375.471,422.372,377.438z M424.024,468.653
		c0.438-1.181,0.094-4.687,2.469-4.698C430.182,463.932,426.814,471.443,424.024,468.653z M428.357,406.115
		c0.051-0.372,0.321-0.592,0.2-1.097c1.005-0.603,1.821-0.013,1.85,0.937C429.901,406.434,428.732,406.23,428.357,406.115z
		 M433.913,360.816c-0.203-0.467-0.419-0.933-0.614-1.402c0.45-0.448,1.431-0.784,2.262-0.477
		C435.652,360.053,435.345,360.863,433.913,360.816z"/>
	<g>
		<g>
			<path fill-rule="evenodd" clip-rule="evenodd" fill="#878787" d="M553.715,366.689c3.624-14.223,6.108-28.904,7.316-43.945
				c-7.535,1.193-14.934,2.757-21.28,3.663c-8.843,1.327-17.406,2.087-26.044,2.466c2.86,2.588-2.315,10.073,3.727,10.475
				c1.417,0.094,1.47-0.888,3.555-0.314v-0.627c0,0.277,1.104,0.428,1.185,0.782c4.891,1.36,8.706,6.417,7.505,11.756
				c-0.867,3.856-3.616,6.804-7.486,7.993c-2.724,0.309-5.861,0.934-7.478-0.625c-0.459-0.446-1.133-1.859-1.649-2.828
				c-0.323-0.586-0.8-1.352-1.026-1.877c-0.936-2.053-0.188-4.545-1.042-6.426c-1.233,0.367-2.993-1.183-3.286-0.938
				c-2.066-3.671,0.607-7.044-0.207-10.972c1.512-1.226,1.602-4.951,3.495-6.297c-4.046,0.141-8.115,0.211-12.248,0.211
				c-11.039,0-15.27-1.425-17.581,5.408c0.189,0.021,0.354,0.004,0.559,0.049c1.143,1.732,0.985,4.397-1.715,4.822
				c-0.008,0.054-0.018,0.094-0.025,0.145c-1.389,8.34-1.389,16.68-4.17,25.018c-6.949,25.715-15.288,51.426-16.679,78.529
				c-0.521,6.777-2.211,18.046-3.353,30.182c0.438-0.217,0.914-0.332,1.425-0.295c3.737,0.275,2.217,5.412,0.822,7.209
				c-1.265-0.173-1.321,0.561-2.064,0.788c-0.293-0.006-0.56-0.044-0.802-0.11c-0.771,11.316-0.783,22.732,1.295,31.449
				c46.155-34.717,80.539-84.223,96.145-141.477C552.257,369.523,552.72,367.877,553.715,366.689z M488.739,376.491
				c1.222,3.001-4.351,2.765-2.053-0.149C487.495,376.182,488.179,376.114,488.739,376.491z M486.276,373.832
				c0.652,0.391,0.652,1.014,0,1.404c-0.742-0.02-0.84-0.517-0.84-1.093C485.909,374.19,486.217,374.101,486.276,373.832z
				 M478.646,462.848c-0.609-0.033-0.636,0.359-1.244,0.321C475.178,461.719,479.207,459.952,478.646,462.848z M478.231,376.491
				c-0.389-0.804-0.633-1.78,1.236-1.563c-0.059,0.562,0.615,0.57,0.615,1.096C479.581,376.268,479.207,376.605,478.231,376.491z
				 M479.673,357.061c-0.139-0.632,0.193-0.902,0.208-1.414c0.702,0.191,1.242,0.523,1.639,0.938
				C481.354,357.172,480.367,357.303,479.673,357.061z M488.128,460.97c-0.496,0.204-0.768,0.579-1.648,0.479
				C484.403,459.803,488.845,458.104,488.128,460.97z M492.455,393.891c-0.473,1.494-2.081,2.658-3.507,3.766
				c-1.301,0.998-2.672,2.332-4.949,2.036c-2.068-0.272-1.949-2.296-2.683-3.292c-0.717-2.183,0.595-4.168,1.454-6.896
				c2.381-1.841,2.859-5.135,5.969-6.43c3.596,1.751,1.462,6.45,3.716,8.934C492.172,392.789,492.005,393.259,492.455,393.891z
				 M501.111,330.418c0.267,0.154,0.397,0.42,0.816,0.464c-0.077,0.566-0.327,0.998-1.026,1.093
				C500.614,331.501,500.574,330.693,501.111,330.418z M500.698,380.412c0.947-0.25,1.515,0.024,1.439,0.941
				C501.635,381.581,500.438,381.255,500.698,380.412z M513.888,450.627c-3.531-0.076-1.992-5.464,1.227-3.916
				c0.735,0.893,0.302,1.691,0.621,2.825C514.808,449.66,514.675,450.396,513.888,450.627z M515.114,390.596
				c-5.287-1.889-2.469-9.084-0.4-12.224c2.089-0.312,4.157,4.39,4.114,6.739C518.794,387.721,517.141,389.554,515.114,390.596z
				 M530.783,415.052c-0.621-0.827,0.232-2.716,1.445-1.723C532.414,414.408,531.726,414.817,530.783,415.052z M532.852,382.289
				c-1.126,1.238-2.616,2.197-4.322,2.98c-1.396,0.114-2.329-0.109-3.306-0.309c-1.983-1.841-3.376-4.117-5.57-5.807
				c0.571-2.59,0.522-5.262,1.243-7.996c1.306-0.932,1.869-2.437,3.288-3.291c-0.01-3.682,1.91-9.213,7.22-6.729
				c1.14,2.027,1.194,4.518,1.858,6.887c0.127,0.484,0.674,0.939,0.822,1.413c0.39,1.246-0.111,2.626,0,3.917
				c0.084,0.908,0.914,1.67,1.027,2.354C535.56,378.368,533.839,380.307,532.852,382.289z M541.918,350.781
				c-0.177-0.109-0.464-0.158-0.823-0.15c0.217-0.591-0.513-0.45-0.419-0.941c0.636,0.021,0.591-0.488,1.45-0.313
				C542.419,349.849,542.16,350.313,541.918,350.781z M552.224,361.291c-0.906,0.055-1.272-0.291-1.648-0.627
				c-0.217-0.589,0.519-0.448,0.414-0.938C552.036,359.711,552.802,360.566,552.224,361.291z"/>
		</g>
	</g>
	<g>
		<g>
			<path fill-rule="evenodd" clip-rule="evenodd" fill="#878787" d="M170.322,70.301c1.81,0.353,3.359,0.957,5.329,1.135
				c-0.004,2.911-1.441,4.377-3.237,5.529c-2.37,0.045-2.977-1.614-4.955-1.967c0.118-1.309,0.399-2.453,0.771-3.51
				c-8.248,4.666-16.236,9.742-23.902,15.241c21.104,8.85,41.996,17.563,61.336,30.156c9.902,6.254,21.891,19.806,34.399,20.326
				c16.679,1.043,33.878-18.242,45.865-28.145c15.636-12.509,28.666-22.933,41.175-38.568c6.582-8.046,14.431-18.146,18.179-28.857
				c-15.349-2.777-31.158-4.235-47.307-4.235C251.666,37.406,208.154,49.35,170.322,70.301z M207.69,85.227
				c-0.48-5.277-4.852-6.796-4.824-12.511c8.84-2.742,18.543-1.449,19.279,9.003C219.337,85.988,212.825,88.565,207.69,85.227z
				 M251.783,92.632c-0.071,6.824-6.892,11.385-12.618,5.366c-0.536-4.756,2.155-6.197,4.511-8.012
				c3.573,1.393,6.285,1.191,8.745,2.653C252.274,93.317,251.777,92.972,251.783,92.632z M273.667,59.403
				c-1.14,0.044-1.307-0.77-2.494-0.652c0.955-1.344,1.518,0.473,3.152-0.582c-0.127-1.72-3.547-0.287-3.099-2.517
				c2.444-0.525,2.204,1.552,3.701,1.918C274.734,58.36,273.818,58.523,273.667,59.403z M330.796,54.688
				c-4.131,0.473-6.34-0.879-6.212-4.493C327.347,47.102,332.889,49.479,330.796,54.688z"/>
		</g>
	</g>
	<g>
		<path fill-rule="evenodd" clip-rule="evenodd" fill="#878787" d="M94.137,442.04c0.116-0.06,0.249-0.073,0.379-0.101
			c0.524-3.731,0.95-7.485,1.175-11.293c1.042-19.805-8.34-25.018-16.679-40.653c-8.268-14.699-27.062-56.103-44.251-69.293
			c3.188,43.954,17.138,84.917,39.228,120.276l0.632-1.4c2.451-0.317,4.313,2.049,2.963,4.219c-0.746,0.197-1.478-0.098-2.126-0.556
			c2.96,4.634,6.036,9.187,9.273,13.616c-0.354-0.535-0.595-1.113-0.897-1.672c2.091-3.496,7.274,1.747,2.899,3.27
			c-0.85-0.336-1.38-0.785-1.773-1.286c1.853,2.528,3.745,5.024,5.685,7.481c1.179-6.939,2.557-13.83,3.604-20.801
			C94.037,443.305,93.877,442.746,94.137,442.04z"/>
	</g>
</g>
</svg>
