<?xml version="1.0" encoding="utf-8"?>
<!-- Generator: Adobe Illustrator 15.0.0, SVG Export Plug-In . SVG Version: 6.00 Build 0)  -->
<!DOCTYPE svg PUBLIC "-//W3C//DTD SVG 1.1//EN" "http://www.w3.org/Graphics/SVG/1.1/DTD/svg11.dtd">
<svg version="1.1" id="Layer_1" xmlns="http://www.w3.org/2000/svg" xmlns:xlink="http://www.w3.org/1999/xlink" x="0px" y="0px"
	 width="600px" height="600px" viewBox="0 0 600 600" enable-background="new 0 0 600 600" xml:space="preserve">
<g>
	<path fill-rule="evenodd" clip-rule="evenodd" fill="#878787" d="M350,314v-59h-16.146l-1.75,59H350z M338,270h6v33h-6V270z"/>
	<path fill-rule="evenodd" clip-rule="evenodd" fill="#878787" d="M341.041,352H341v7.14c0,0-0.05,0.005,0.058,0.017
		c0.107,0.013,0.089,0.017,0.134,0.017c0.371,0,1.021-0.061,1.187-0.185c0.16-0.122,0.622-0.324,0.622-0.612v-0.439v-4.622
		c0-0.509-0.496-0.893-0.638-1.039C342.216,352.129,341.491,352,341.041,352z"/>
	<polygon fill-rule="evenodd" clip-rule="evenodd" fill="#878787" points="360.183,255 354,255 354,314 361,314 361,284.948 
		366.181,314 373,314 373,255 367,255 367,284.948 	"/>
	<path fill-rule="evenodd" clip-rule="evenodd" fill="#878787" d="M379.305,249.327c0.009,0.013-0.209,0.027-0.199,0.041
		c0.045,0.07-0.032,0.146,0,0.225c0.017,0.041-0.018,0.08-0.005,0.122c0.025,0.079,0.01,0.163,0.021,0.247
		c0.007,0.047,0.443,0.094,0.445,0.142c0,0.018,0.434,0.034,0.434,0.052v68.338l8,5.336v-92.92l-16-10.584v17.588L379.305,249.327z"
		/>
	<polygon fill-rule="evenodd" clip-rule="evenodd" fill="#878787" points="374.734,248.778 368.858,240 324.55,240 330.887,249.062 
			"/>
	<polygon fill-rule="evenodd" clip-rule="evenodd" fill="#878787" points="377.207,320 330.855,320 338.049,328.572 
		384.375,324.827 	"/>
	<polygon fill-rule="evenodd" clip-rule="evenodd" fill="#878787" points="289.78,354 291.354,354 290.57,344.57 	"/>
	<polygon fill-rule="evenodd" clip-rule="evenodd" fill="#878787" points="294.648,148.109 296.234,134.071 273.374,139.127 
		276.99,152.931 	"/>
	<polygon fill-rule="evenodd" clip-rule="evenodd" fill="#878787" points="252.075,260 255.051,280.292 272.071,276.831 270.57,260 
			"/>
	<polygon fill-rule="evenodd" clip-rule="evenodd" fill="#878787" points="242.416,354 243.988,354 243.213,344.57 	"/>
	<path fill-rule="evenodd" clip-rule="evenodd" fill="#878787" d="M228.662,342H229v6.857c0,0-0.255,0.007-0.149,0.015
		c0.107,0.012-0.01,0.014,0.037,0.014c0.391,0,0.708-0.064,0.851-0.198c0.145-0.132,0.262-0.381,0.262-0.756v-0.662v-3.356
		c0-0.605-0.216-1.274-0.355-1.411C229.509,342.363,229.079,342,228.662,342z"/>
	<path fill-rule="evenodd" clip-rule="evenodd" fill="#878787" d="M341.041,342H341v5.709c0,0-0.05,0.004,0.058,0.024
		c0.107,0.012,0.089,0.02,0.134,0.02c0.371,0,1.021-0.063,1.187-0.191c0.16-0.128,0.622-0.328,0.622-0.6v-0.443v-2.723
		c0-0.512-0.496-1.134-0.638-1.28C342.216,342.367,341.491,342,341.041,342z"/>
	<polygon fill-rule="evenodd" clip-rule="evenodd" fill="#878787" points="354.857,354 356.429,354 355.648,344.57 	"/>
	<polygon fill-rule="evenodd" clip-rule="evenodd" fill="#878787" points="383.682,354 385.253,354 384.473,344.57 	"/>
	<polygon fill-rule="evenodd" clip-rule="evenodd" fill="#878787" points="353.002,132.054 335.805,128.543 335.52,143.104 
		351.213,146.509 	"/>
	<path fill="#878787" d="M300,586.952c-76.647,0-148.707-29.848-202.906-84.046S13.047,376.647,13.047,300.001
		c0-76.648,29.848-148.708,84.047-202.907C151.293,42.896,223.353,13.048,300,13.048c76.648,0,148.708,29.848,202.906,84.046
		c54.199,54.199,84.047,126.259,84.047,202.907c0,76.646-29.848,148.707-84.047,202.905S376.647,586.952,300,586.952z M300,25.494
		c-151.363,0-274.508,123.144-274.508,274.507S148.637,574.507,300,574.507s274.508-123.143,274.508-274.506
		S451.363,25.494,300,25.494z"/>
	<path fill="#878787" d="M203.564,485.131c1.314,0.21,2.589,0.335,3.828,0.388c-2.666-19.39-5.676-38.777-9.123-58.07
		c-20.518,26.805-38.006,55.631-50.018,86.891c20.299,14.436,42.737,26.052,66.741,34.305c-0.644-6.425-1.346-12.837-2.081-19.23
		c-1.476-12.825-3.069-25.684-4.798-38.547c-2.393,0.047-4.883-0.113-7.491-0.529C195.249,489.479,200.03,484.567,203.564,485.131z"
		/>
	<path fill="#878787" d="M228.514,353.271c0.033,0,0.059,0.007,0.09,0.008v-0.008H228.514z"/>
	<g>
		<path fill="#878787" d="M82.465,446.966c0.747,1.104,1.502,2.203,2.266,3.296c0.041-1.264-0.075-2.481-0.561-3.593
			C83.413,446.737,82.89,446.843,82.465,446.966z"/>
		<path fill="#878787" d="M515.49,148.532l-3.191-0.059c-0.733-0.77-0.711-2.273-0.59-3.821c0.455-0.232,0.805-0.347,1.111-0.4
			C464.936,79.011,387.709,36.647,300.577,36.647c-96.752,0-181.292,52.23-227.003,130.023c0.303,1.977-0.846,3.872-1.635,6.379
			c-2.207,1.705-2.823,4.625-5.283,6.146C48,215.316,37.457,256.31,37.457,299.769c0,24.953,3.48,49.093,9.971,71.966
			c0.086-1.009,0.186-2.039,0.488-2.97c0.142-0.462,0.723-0.684,1.054-1.287c0.889-1.591,0.628-3.285,3.163-3.039
			c4.216,3.461-0.537,7.855-3.873,10.167c3.422,11.554,7.614,22.775,12.521,33.605c0.51,0.205,0.881,0.61,0.628,0.942
			c-0.042,0.035-0.111,0.049-0.169,0.071c3.298,7.198,6.914,14.219,10.824,21.05c0.091-0.153,0.183-0.307,0.093-0.6
			c0.35,0,0.707,0.004,1.061,0c0.299,0.24,0.299,1.057,0,1.281c-0.416,0.047-0.637-0.053-0.852-0.156
			c0.205,0.355,0.407,0.712,0.613,1.066c1.84-1.367,3.584-2.807,4.871-4.596c3.12-0.225,4.434,0.754,6.74,1.441
			c1.141-0.175,2.334-0.266,2.957,0.321c0.657,0.786-0.467,1.836-0.215,2.243c0.666,1.059,2.987,1.121,4.429,0.638
			c1.774,0.884,3.184,0.571,4.847,1.287c4.318-0.329,6.406,1.732,6.537,4.484c0.01,0.358-0.266,0.8-0.212,1.124
			c0.154,0.971,1.004,1.854,1.263,2.891c0.285,1.152,0.094,2.231,0.42,3.206c0.408,1.241,1.006,2.536,1.678,3.526
			c0.592,0.838,1.404,1.226,2.113,2.082c0.148,3.803,0.508,8.67-2.947,10.895c-0.023,0.295,0.256,0.338,0.205,0.642
			c-2.063,0.1-2.96,2.436-4.63,3.364c-0.89-0.2-2.328,0.441-2.957,0.97c-0.314-0.158-0.79-0.214-1.315-0.206
			c13.407,16.398,28.754,31.15,45.69,43.904c7.123-16.924,15.917-33.084,25.362-47.944c9.043-14.227,18.881-27.874,29.311-41.054
			c-3.928-21.344-8.415-42.555-13.617-63.496c-0.482-1.936,7.551-4.018,8.014-2.147c4.706,18.941,8.713,37.98,12.269,57.248
			C217.992,395.426,233.193,379,249.016,363h-4.389l-0.401-5h-2.074l-0.396,5h-4.813l3.133-25h6.266l3.309,24.703
			c0.714-0.713,1.35-1.282,2.35-1.993V338h8v4h-3v5h3v4h-3v4.769c2-1.945,4-3.877,6-5.805V338h5v7.199
			c1-0.957,1.818-1.918,2.832-2.871c0.076-1.554,0.221-2.563,0.749-3.003c0.503-0.425,1.509-0.683,3.153-0.781
			c1.591-1.482,3.154-2.969,4.752-4.441c1.442-1.329,9.044-2.18,7.26-0.535c-1.962,1.809-3.931,3.629-5.894,5.457
			c0.27,0.104,0.682,0.222,0.832,0.357c0.643,0.589,1.316,1.982,1.316,4.176V347h-6v-3.294c0-0.354,0.097-0.623,0.096-0.805
			c-0.365,0.344-1.096,0.688-1.096,1.033v14.09c0,0.451-0.161,0.77-0.048,0.955c0.111,0.189,0.196,0.282,0.471,0.282
			c0.237,0,0.333-0.073,0.463-0.217c0.139-0.142,0.113-0.339,0.113-0.591v-0.43V352h6v6.172c0,2.247-0.712,3.661-1.378,4.246
			c-0.671,0.583-2.501,0.873-5.119,0.873c-2.646,0-4.082-0.298-4.736-0.896c-0.65-0.602-0.768-2.008-0.768-4.224v-9.505
			c-1,0.953-2,1.912-3,2.871V363h-5v-6.634c-2,1.949-4,3.906-6,5.878V363h-1.438c-17.736,18-34.949,36.242-50.648,55.842
			c3.838,21.387,7.148,42.941,10.256,64.34c0.072,0.495,0.145,1.025,0.217,1.521c14.099-3.45,23.014-17.439,31.527-29.661
			c1.069-1.535,7.324-4.222,7.789-0.788c1.243,9.182,0.7,18.488,3.123,27.362c5.309-7.883,3.789-20.332,6.654-29.12
			c0.852-2.603,6.762-4.764,8.043-1.474c0.437,1.122,0.867,2.21,1.285,3.28c1.047-3.049,2.307-6.04,3.884-8.966
			c1.093-2.023,5.847-3.568,7.479-1.391c2.57,3.429,7.246,10.305,11.611,5.23c1.74-2.024,3.304-4.158,4.829-6.346
			c2.304-3.302,4.619-6.531,7.357-9.484c1.394-1.505,6.411-2.992,7.293-0.146c0.036,0.114,0.066,0.229,0.102,0.343
			c2.698-6.232,6.682-11.738,12.758-15.367c1.629-0.973,5.681-2.154,6.581,0.445c0.426,1.227,0.824,2.421,1.186,3.605
			c2.864-5.436,6.17-10.539,10.963-14.8c1.481-1.317,5.43-2.876,6.98-0.741c2.038,2.805,4.946,4.848,7.785,6.934
			c5.439-6.466,7.996-14.406,10.402-22.684c0.83-2.854,8.066-4.808,8.07-0.803c0.004,5.828,0.036,11.636,0.468,17.42
			c2.511-5.305,4.206-11.047,6.044-16.617c0.785-2.381,7.162-4.965,8.041-1.475c4.504,17.846,23.771,18.343,38.425,12.385
			c11.923-4.848,22.131-13.082,29.604-23.584c14.2-19.953,21.488-43.986,22.748-68.326c0.164-3.155,8.266-4.582,8.07-0.802
			c-1.626,31.372-13.345,64.663-37.881,85.392c-15.296,12.923-50.884,25.24-64.652,6.575c-2.39,6.455-5.314,12.634-9.996,17.903
			c-1.191,1.341-6.783,3.105-7.292,0.146c-0.553-3.212-0.91-6.432-1.153-9.657c-2.037,3.464-4.538,6.673-7.754,9.512
			c-1.825,1.612-4.965,2.506-6.98,0.741c-2.627-2.299-5.644-4.134-8.245-6.418c-5.181,6.261-8.219,13.82-11.816,21.224
			c-0.871,1.789-7.626,3.993-7.791,0.797c-0.183-3.553-0.829-6.729-1.753-9.938c-6.262,6.901-8.355,17.293-9.644,26.286
			c-0.387,2.696-7.896,4.614-8.042,1.475c-0.171-3.647-0.639-7.133-1.361-10.59c-3.519,5.313-7.277,10.962-12.637,12.956
			c-6.406,2.384-11.084,0.688-15.195-3.11c-2.46,6.521-3.705,13.311-4.888,20.326c-0.519,3.088-8.415,4.581-8.066,0.803
			c0.138-1.494,0.149-2.898,0.06-4.238c-1.228,7.905-3.378,15.238-11.272,19.936c-1.765,1.05-5.497,2.076-6.581-0.445
			c-3.244-7.545-3.557-15.492-4.059-23.48c-8.543,11.291-18.283,21.35-31.36,24.521c2.943,20.251,5.909,40.944,7.994,61.743
			c24.196,7.337,49.86,11.297,76.453,11.297c145.318,0,263.121-117.803,263.121-263.12c0-56.449-17.783-108.741-48.042-151.594
			C515.601,148.293,515.547,148.406,515.49,148.532z M42.865,277.878c-0.796-0.85-1.845-0.707-2.748-1.279
			c1.459-1.665,2.956-5.754,6.316-3.525C47.188,275.362,46.646,278.137,42.865,277.878z M48.764,276.271
			c-0.125-1.199,0.52-1.837,1.676-2.078C52.155,274.992,50.61,277.786,48.764,276.271z M50.017,360.907
			c-0.497-0.662-0.403-1.357,0.423-1.758C51.48,359.362,52.127,361.356,50.017,360.907z M59.715,283.167
			c0.285-0.338-0.022,0.179,0.206,0.486c0.601-0.163-0.298-0.43,0.224-0.645c0.435,0.149,0.641,0.469,0.635,0.965
			c-0.515-0.074-0.458,0.288-1.064,0.159C59.967,283.708,59.315,283.192,59.715,283.167z M53.396,231.88
			c0.293,0.488,0.334,1.313-0.215,1.596c-0.273-0.158-0.406-0.43-0.835-0.475C52.426,232.422,52.682,231.98,53.396,231.88z
			 M53.396,386.72c-0.18-1.473,0.35-2.41,1.686-2.727C56.667,384.797,55.801,387.629,53.396,386.72z M53.818,381.271
			c-1.424-0.946-0.214-3.532,1.691-2.891C56.395,379.408,56.023,381.595,53.818,381.271z M56.559,369.085
			c-1.799-1.379-0.092-3.931,1.893-3.843C59.074,366.667,59.363,369.356,56.559,369.085z M56.773,354.665
			c1.034,0.162,1.878,0.488,2.728,0.791C60.494,359.94,53.571,357.718,56.773,354.665z M59.295,322.442
			c-0.271,1.029-1.089,1.857-1.473,2.887c-0.215,0.553,0.046,1.211-0.215,1.76c-0.251,0.53-0.935,0.875-1.254,1.438
			c-1.204,2.066-1.861,3.969-3.584,5.613c-0.729-0.063-0.269-0.433-1.059-0.158c0.169-3.756,1.197-6.875,2.734-9.939
			c-3.539-2.412-2.879-8.07,2.536-7.688c0.903-0.383,1.028-1.361,2.103-1.611c1.05,0.121,1.316,0.82,1.901,1.287
			C61.233,318.545,59.865,320.298,59.295,322.442z M76.58,186.358c0.397,0.82,0.647,1.819-1.264,1.599
			c0.061-0.575-0.629-0.583-0.629-1.12C75.199,186.587,75.583,186.241,76.58,186.358z M75.105,206.229
			c0.143,0.645-0.197,0.92-0.212,1.444c-0.718-0.194-1.271-0.537-1.677-0.957C73.386,206.113,74.396,205.979,75.105,206.229z
			 M71.731,326.291c0.429,0.495-0.092,0.791,0.425,1.278C71.598,327.457,71.285,326.669,71.731,326.291z M69.212,188.757
			c-0.483-0.046-0.798,0.046-0.858,0.32c-0.668-0.399-0.668-1.036,0-1.437C69.111,187.662,69.212,188.169,69.212,188.757z
			 M63.928,386.879c-0.069-0.962-0.069-1.878,1.063-1.929c0.263,0.609,0.91,0.912,0.843,1.77
			C65.189,386.907,64.704,387.2,63.928,386.879z M67.934,186.509c-0.827,0.166-1.526,0.232-2.1-0.15
			C64.585,183.289,70.284,183.53,67.934,186.509z M67.518,391.202c-2.366-1.592-0.422-5.298,1.898-6.252
			c1.091,0.08,2.619-0.17,3.381,0.163C74.375,387.92,70.886,393.483,67.518,391.202z M72.359,417.651
			c-0.277-0.47-0.299-1.16,0.217-1.44c0.519-0.017,0.65,0.246,1.054,0.317C73.692,417.272,73.264,417.64,72.359,417.651z
			 M70.044,371.808c-1.652-1.673-0.288-5.504,2.315-5.449C76.274,366.449,73.83,373.212,70.044,371.808z M73.005,229.153
			c-1.343-2.031-0.937-5.33,3.152-4.969C78.25,226.047,77.27,230.069,73.005,229.153z M77.207,384.793
			c1.516,0.345,0.887,2.931-1.264,2.086C75.828,385.775,76.089,384.95,77.207,384.793z M75.943,412.521
			c-0.094-0.5,0.506-1.295,1.486-1.757C80.884,411.099,76.432,415.166,75.943,412.521z M103.566,167.12
			c-1.17,0.009-1.177-1.021-1.278-2.079C103.937,162.959,106.087,167.091,103.566,167.12z M95.138,309.775
			c0.513-0.296,0.985-0.625,1.674-0.795C98.858,310.101,95.094,312.349,95.138,309.775z M95.973,269.062h-0.629
			c-0.177-0.188-0.285-0.428-0.206-0.795c0.196,0.096,0.764,0.375,0.626-0.166C96.451,268.192,96.07,268.708,95.973,269.062z
			 M95.558,236.845c0.344,1.166,0.344,2.361,0.206,3.205c-1.654,1.679-4.452,1.758-5.053-0.319
			c-0.339-1.108,0.652-1.679,0.421-2.886C92.408,236.095,94.109,236.481,95.558,236.845z M90.915,193.733
			c0.575,0.095,0.531,0.66,1.267,0.637c0.066,0.586-0.042,1.036-0.215,1.439c-0.835,0.159-1.256,0.159-2.115,0
			C89.508,195.065,89.905,193.921,90.915,193.733z M89.014,270.507c-0.841,0.559-2.154,0.596-2.73-0.158
			c0.047-1.008,1.155-1.402,1.89-1.443C88.581,269.341,89.048,269.737,89.014,270.507z M86.283,208.794
			c2.042,0.938,0.205,4.076-2.113,2.412C84.17,210.147,84.531,208.937,86.283,208.794z M81.213,368.765
			c-3.224,0.041-1.51-5.025,0.85-4.967C85.031,363.867,84.728,368.724,81.213,368.765z M93.024,413.163
			C94.182,416.761,88.948,413.792,93.024,413.163L93.024,413.163z M98.286,406.591c-0.163-0.819,0.173-1.257,0.642-1.602
			c0.399,0.07,0.528,0.345,1.049,0.324C100.253,406.4,99.285,406.95,98.286,406.591z M98.928,364.276
			c-0.346-0.488-0.84-0.863-0.642-1.758C100.037,359.745,103.329,364.542,98.928,364.276z M99.564,346.812
			c-1.77-0.584-2.807,1.558-4.007,2.394c-1.748-0.12-2.491,0.538-2.533,1.291c-2.001-0.499-5.915,1.091-7.591-0.648l-0.215,0.319
			c-0.294-0.569-0.55-1.182-1.049-1.594c0.699,0.278,0.334-0.708,0.205-0.163c-0.199-0.745,1.739-1.245,1.693-2.401
			c2.113-0.246,3.76-1.363,6.741-1.771c1.506-0.203,2.992,0.246,4.427,0.168c1.819-0.101,3.604-1.429,4.848-0.329
			C102.901,346.241,100.084,345.662,99.564,346.812z M101.455,186.679c-0.077-1.124,1.141-1.273,1.898-1.765
			c0.469,0.224,0.862,0.511,1.262,0.804C104.401,187.378,102.725,187.77,101.455,186.679z M103.99,399.858
			c-1.174-0.125-0.645-0.824-0.424-1.44c0.57-0.121,0.424,0.319,0.835,0.325c0.079-0.28-0.156-0.305-0.411-0.325
			C104.794,397.439,104.863,399.838,103.99,399.858z M103.354,346.649c0.506-0.578,0.642-1.429,1.685-1.608
			C107.572,346.078,104.18,349.264,103.354,346.649z M105.459,324.683c0.447,0.713,0.23,1.746-0.635,1.92
			C103.659,326.349,103.736,324.47,105.459,324.683z M103.773,296.954c0.063-0.766,0.555-1.707,1.891-1.925
			c0.209,0.334,0.086,1.149,0.423,1.767C105.444,297.345,104.501,297.629,103.773,296.954z M130.541,343.271
			c0.36,0.559,0.009,1.212-0.841,1.287c-0.16-0.146-0.233-0.358-0.208-0.638C128.902,343.621,129.946,343.209,130.541,343.271z
			 M127.585,156.06c-0.052,0.384-0.329,0.608-0.204,1.125c-1.029,0.615-1.863,0.012-1.893-0.959
			C126.007,155.734,127.201,155.943,127.585,156.06z M121.902,202.386c0.209,0.479,0.43,0.954,0.629,1.437
			c-0.46,0.458-1.463,0.8-2.313,0.487C120.125,203.169,120.439,202.34,121.902,202.386z M107.572,357.858
			c-1.079-1.424,0.147-3.211,1.678-3.996C111.472,354.374,110.537,358.658,107.572,357.858z M110.72,432.556
			c-0.289-0.014-0.587-0.021-0.626,0.167c-0.281-0.05-0.174-0.403-0.207-0.642l0.207,0.316c0.23-0.041,0.139-0.316,0.422-0.316
			c0.103-0.512-0.645-0.361-0.422-0.971c0.282-0.05,0.337-0.275,0.626-0.313c0.671-0.078,0.56,0.434,1.066,0.479
			C111.626,431.852,110.491,431.685,110.72,432.556z M110.516,299.356c-0.629-0.104,0.204-0.342,0-0.642l-0.422,0.483
			c-0.652-0.258,0.426-0.504,0.422-0.803c0.176,0.087,0.354,0.174,0.625,0.157C111.426,299.194,110.537,298.944,110.516,299.356z
			 M111.357,473.273c-0.713-0.118-1.289-0.134-2.107-0.483c0.215-0.691,0.605-1.245,0.844-1.924
			C112.123,470.716,112.32,472.44,111.357,473.273z M111.141,466.697c-4.333,0.946-3.695-5.218,0-4.484
			C113.473,462.675,113.922,466.103,111.141,466.697z M113.049,378.38c-0.279-0.163-0.779-0.158-1.049-0.316
			c0.561-0.104,0.584-0.629,1.258-0.642C113.723,377.756,113.302,378.138,113.049,378.38z M114.942,413.638
			c-0.515,0.033-0.883-0.075-1.05-0.313c0.077-0.412,0.65-0.467,1.05-0.641C115.229,412.888,115.229,413.446,114.942,413.638z
			 M116.419,425.348c-0.384-0.188-0.161-0.837-0.419-1.116c0.434,0.045,0.641,0.916,0.633,0c0.314,0.129,0.301,0.508,0.423,0.799
			L116.419,425.348z M116.633,236.527c-1.645,2.769-5.606,4.323-9.275,2.237c0.439-0.825-0.498-1.259-0.644-2.078
			c-0.564-3.465,3.194-7.738,6.965-7.213C116.82,229.911,118.065,234.104,116.633,236.527z M120.424,390.077
			c-0.563-0.862-0.343-2.178,1.059-2.395C122.669,388.349,122.578,390.743,120.424,390.077z M121.902,460.601
			c0.606-0.441,0.881-1.136,1.473-1.59c2.029,0.279,2.09,1.523,2.533,2.724C123.979,462.413,122.18,462.596,121.902,460.601z
			 M127.585,433.843c-0.821,0.084-0.864-0.413-1.47-0.484c0.199-0.591,0.643-1.002,1.47-1.119
			C128.114,432.938,127.802,433.139,127.585,433.843z M126.318,385.275c-0.655-1.069-0.824-2.21,0.426-2.89
			C129.005,382.236,129.049,385.737,126.318,385.275z M128.634,475.196c0.132-1.012,2.107-0.688,1.907,0.32
			C129.7,475.892,129.292,475.4,128.634,475.196z M131.591,480.331c-0.272-0.055-0.175-0.404-0.204-0.645
			c-0.191,0.119-0.485,0.178-0.846,0.162c0-0.446,0.997-0.384,1.262-0.162C131.838,479.978,131.545,480.023,131.591,480.331z
			 M133.077,447.468c-0.903-0.326-1.072,0.458-1.907-0.163c-0.116-0.62,0.375-0.782,0.217-1.444c0.673,0.137,1.551,0.1,2.111,0.324
			C133.719,446.897,133.132,446.985,133.077,447.468z M134.526,488.935c-0.162-0.338-0.339-0.688-0.608-1.07
			c0.361-0.9,0.805-1.737,1.587-2.311C135.192,486.665,134.861,487.793,134.526,488.935z M135.812,376.294
			c-0.89-0.017-0.775-0.904-0.636-1.279C136.125,374.99,136.125,375.79,135.812,376.294z M138.131,330.774
			c-0.178-0.083-0.35-0.162-0.627-0.158c-0.237-0.599,0.515-0.461,0.421-0.961C138.713,329.817,138.539,330.38,138.131,330.774z
			 M139.603,195.976c-1.472-0.858-2.849-3.094-4.007-3.664c-0.873-1.412-2.473-4.947-1.89-6.958
			c2.894-0.288,5.782,2.011,6.522,4.026c0.33,0.888-0.076,1.866,0.218,2.737c1.062,3.127,4.409,5.287,4.847,7.699
			c0.094,0.236,0.27,0.575,0.627,0.646c-0.007,2.456,2.89,5.537,2.535,7.537h-1.049C144.758,203,141.709,200.223,139.603,195.976z
			 M142.918,455.683l-0.153-0.041l0.237-0.313L142.918,455.683z M143.606,410.273c-0.421-0.259-0.977-0.417-1.049-0.954
			c0.468-0.233,0.407-0.857,1.049-0.97c0.658-0.117,0.417,0.445,1.05,0.329C144.656,409.47,144.206,409.923,143.606,410.273z
			 M144.243,322.601c0.123,0.521-0.144,0.746-0.214,1.125c-0.329,0.012-0.804-0.079-0.844,0.158
			C142.222,323.525,143.033,322.321,144.243,322.601z M142.765,238.935c0.175-0.674,0.481-1.241,1.265-1.445
			c0.803-0.074,0.666,0.563,1.049,0.801C144.537,238.942,143.875,239.497,142.765,238.935z M145.293,210.235
			c0.207-0.695,0.5-1.336,1.898-1.117c0.169,0.514,0.621,0.809,0.636,1.438C146.719,210.968,145.896,210.947,145.293,210.235z
			 M148.81,428.218c-0.574-0.181-1.137-0.575-1.618-1.263c-0.094-1.47,0.529-2.948,1.647-3.636
			C148.922,424.985,148.907,426.614,148.81,428.218z M148.033,227.712c-1.843-2.314,0.85-4.613,2.33-5.93
			C152.225,223.552,151.074,228.032,148.033,227.712z M152.668,168.727c-2.68-0.387-1.913-3.535-0.412-4.483
			C155.885,164.018,155.08,167.802,152.668,168.727z M157.518,337.192c-0.246-0.675-0.222-1.25,0.212-1.77
			c0.737-0.313,0.937,0.545,1.058,0.162C158.812,335.817,158.578,337.237,157.518,337.192z M162.203,329.888
			c-0.153,0-0.238,0.084-0.262,0.408l0.072,0.072l-0.125,0.307c-0.345-0.054-0.657-0.203-0.787-0.541l0.213,0.162
			c0.377-0.6,0.767-1.17,1.361-1.6C162.516,329.097,162.348,329.493,162.203,329.888z M169.953,213.921
			c-0.408,0.012-1.002-1.07-0.844-0.479c-1.722-0.504-2.305-3.266-4.005-4.324c-1.712-2.977-3.117-6.188-5.897-8.34
			c0.393-0.721-1.004-1.342-2.318-1.283c-1.554-1.648-2.105-3.755-2.318-6.092c0.543-0.545,0.923-1.215,1.69-1.595
			c1.429,0.108,3.095,1.669,4.213,0.953c0.799,1.566,3.081,3.224,1.682,5.456c2.259,3.91,5.035,7.482,6.12,11.542
			C169.653,210.784,170.122,212.259,169.953,213.921z M179.017,173.694c-0.679,0.13-1.479-0.462-1.052-0.645
			c0.749,0.017-0.023,0.295,0.638,0.479c0.847-0.604-0.552-0.858-0.423-1.44c0.445,0.199,0.578,0.628,1.049,0.803
			C179.322,173.278,178.846,173.245,179.017,173.694z M182.339,92.537c-1.551,0.226-2.757-0.083-4.282,0.117
			c-0.396-1.742,0.265-2.813,1.181-3.744c1.412-0.352,2.005,0.556,3.233,0.498C182.627,90.581,182.54,91.588,182.339,92.537z
			 M265.053,425.583c2.414,0.425,5.629-2.801,7.381-4.109c2.783-2.074,9.488-0.332,5.121,2.926
			c-4.724,3.521-10.216,7.234-16.424,6.136c-3.072-0.543-5.42-2.234-7.654-4.327c-1.279-1.199,0.578-5.429,1.082-6.77
			c3.604-9.562,13.961-11.426,22.83-8.623c4.666,1.475-1.873,5.72-4.789,4.801c-4.341-1.372-7.852-1.838-9.905,2.887
			c-0.636,1.462-1.071,3.02-1.323,4.594C261.205,424.138,264.226,425.437,265.053,425.583z M399.956,75.741
			c0.478,0.424,0.651,1.322,1.452,1.252c0.602,3.897-6.145,4.276-5.737,0.822C396.628,76.811,397.806,75.965,399.956,75.741z
			 M385.057,58.991c2.436-1.162,2.669-0.064,4.741,0.164l0.556,2.628c-1.979,0.859-2.84,2.395-5.188,1.471
			C384.418,61.46,384.244,60.421,385.057,58.991z M388.532,79.312c-4.8,1.872-5.02-3.578-0.431-3.816
			C388.289,76.787,389.041,78.469,388.532,79.312z M378.214,127.77c2.821,11.842,0.095,27.495-14.833,27.9L373.826,208h-27.157
			l3.31-47.556l-13.756-2.831L338.207,208H323.48l-2.719-98.191l46.797,5.941C367.559,115.75,375.9,118.042,378.214,127.77z
			 M350.371,86.537c0.396,2.096,0,1.697,0.396,3.794c-1.475,0.296-2.339-0.344-3.611-0.404
			C345.871,86.986,348.359,85.527,350.371,86.537z M343.968,48.519l1.892-0.394c0.467,0.751,1.236,1.083,1.281,2.446
			c-1.428,0.74-2.188,0.447-3.838,0.426C343.314,50.018,344.054,49.537,343.968,48.519z M329.307,83.549
			c0.513,0.602-0.86,1.468,0.314,1.491c-0.51,1.853-3.137,3.151-4.72,1.769C323.878,83.796,326.947,83.519,329.307,83.549z
			 M302.441,88.404c1.932,2.752,1.273,5.733-1.372,6.53C294.514,96.89,296.409,85.636,302.441,88.404z M296.197,60.478
			c-0.002,0.326-0.287,0.46-0.213,0.824c0.33,0.34,0.944,0.208,0.975,0.971l-1.117,0.236
			C295.432,61.654,294.904,60.894,296.197,60.478z M288.023,55.186c0.779,0.303,0.71,1.874,1.3,2.458
			c-0.386,0.604-1.542,0.72-2.558,0.931l-0.469-2.25C286.917,55.966,287.815,55.807,288.023,55.186z M268.925,70.879
			c1.475,1.382,3.905,1.284,5.889,1.886c-0.081,1.12,0.735,0.847,0.774,1.775c-0.981,1.313-1.64,2.82-4.043,3.197
			C270.221,76.463,265.992,72.489,268.925,70.879z M314.909,112.246l1.259,95.575l-19.934,2.236l-1.586-48.011l-16.297,4.493
			l7.726,44.746l-22.144,0.559l-7.938-87.345L314.909,112.246z M255.995,213.221l-52.337,0.845l-2.713-98.224l49.459,10.35
			l0.994,30.446l-27.369,0.741l1.465,28.132l28.309-5.395L255.995,213.221z M251.971,81.839c0.51-0.018,0.535,0.655,0.156,0.751
			c0.049,0.924,1.676-0.564,1.368,0.888c-0.749,0.296-1.049-0.049-1.583-0.066C251.602,82.659,251.962,82.366,251.971,81.839z
			 M251.412,77.273c0.531,1.319,0.172,2.045-0.202,2.772c-2.048,0.659-3.219-0.018-4.457-0.618
			C247.449,77.776,249.371,76.328,251.412,77.273z M238.721,63.581c0.174,1.776-1.617,4.39-3.268,4.979
			c-3.149,1.098-4.805-1.755-7.49-1.957l-0.699-3.35C229.99,58.762,238.182,58.289,238.721,63.581z M205.541,72.083
			c1.154,0.071,2.3,0.156,2.963,0.938c0.259,1.374-0.773,1.888-2.336,2.061C205.993,73.915,204.854,73.162,205.541,72.083z
			 M203.731,61.563c-0.115,2.035-3.222,1.78-3.835,0.422C199.993,60.489,202.509,61.719,203.731,61.563z M198.824,69.997
			c0.192,1.192,1.261,1.037,1.31,2.442c-0.36,0.529-1.252,0.705-2.188,0.856c-0.145-0.948-0.299-1.82-1.145-1.701
			C196.958,70.712,197.452,70.072,198.824,69.997z M198.207,215.049l0.452,0.454c0.108,1.229,0.197,2.44,0.282,3.639
			c-0.712-0.74-1.648-1.319-2.221-2.17C197.477,216.527,196.721,214.945,198.207,215.049z M221,347h-5v-3.294
			c0-0.479-0.499-0.805-0.62-0.977c-0.126-0.17-0.562-0.255-0.874-0.255c-0.249,0-0.338,0.077-0.438,0.227
			c-0.095,0.149-0.068,0.486-0.068,1.005v14.349c0,0.443-0.13,0.749-0.017,0.934c0.111,0.183,0.21,0.273,0.486,0.273
			c0.245,0,0.822-0.071,0.951-0.208c0.125-0.135,0.58-0.33,0.58-0.572v-0.427V354h-1v-4h6v13h-2.979l-0.942-1.574
			c-0.526,0.688-1.086,1.188-1.66,1.451c-0.58,0.259-1.418,0.399-2.517,0.399c-1.729,0-2.622-0.306-3.246-0.94
			c-0.624-0.634-0.655-2.005-0.655-4.136v-14.643c0-2.264,0.052-3.672,0.718-4.227c0.663-0.558,2.154-0.833,4.765-0.833
			c2.681,0,4.617,0.296,5.266,0.884c0.648,0.589,1.251,1.982,1.251,4.176V347z M235,346.24c0,1.776-0.228,2.964-0.574,3.56
			c-0.349,0.6-1.004,1.059-1.917,1.383c0.881,0.256,1.546,0.673,1.907,1.258c0.363,0.584,0.584,1.488,0.584,2.713V363h-5v-8.286
			c0-0.51-0.033-0.927-0.199-1.105c-0.154-0.161-0.801-0.309-0.801-0.33V363h-6v-25h5.926c2.568,0,4.257,0.617,4.961,1.197
			c0.709,0.586,1.113,2.305,1.113,4.509V346.24z M236.562,326.933l-27.843-3.295l1.164-83.214l-17.739,0.533l0.379-17.997
			L275,220.761v18.731l-45.821,0.932L236.562,326.933z M247,336h-6v-2h6V336z M243.01,326.933l-5.195-78.377l42.789-2.602
			l3.397,40.793l-27.196,5.797l3.404,17.197l25.988-4l1.203,13.998L243.01,326.933z M291.986,363l-0.396-5h-2.075l-0.399,5h-4.811
			l3.136-25h6.268l3.162,25H291.986z M293.403,319.461L290.799,239H283v-18.239l31-1.197v102.976L293.403,319.461z M319,347h-5
			v-3.294c0-0.47-0.494-0.788-0.61-0.954c-0.119-0.168-0.558-0.251-0.882-0.251c-0.242,0-0.339,0.074-0.436,0.223
			c-0.102,0.148-0.072,0.473-0.072,0.982v14.318c0,0.451-0.128,0.77-0.017,0.955c0.111,0.189,0.218,0.282,0.487,0.282
			c0.236,0,0.809-0.073,0.943-0.217c0.13-0.142,0.586-0.339,0.586-0.591v-0.43V352h5v6.172c0,2.247-0.681,3.661-1.347,4.246
			c-0.667,0.583-2.481,0.873-5.103,0.873c-2.648,0-4.106-0.298-4.759-0.896c-0.652-0.602-0.792-2.008-0.792-4.224v-14.614
			c0-2.271,0.056-3.684,0.712-4.232c0.656-0.554,2.155-0.827,4.774-0.827c2.678,0,4.617,0.296,5.264,0.884
			c0.646,0.589,1.25,1.982,1.25,4.176V347z M319.658,71.147c2.195-0.703,3.561-0.169,3.636,2.35
			c-1.052,0.309-1.425,1.036-2.482,1.317C319.226,73.786,318.625,72.902,319.658,71.147z M331.427,389.302
			c-3.612-0.063-6.065-3.938-4.358-7.078l3.192,0.054C331.287,384.997,332.593,387.566,331.427,389.302z M333,358.23
			c0,2.229-0.459,3.626-1.122,4.198c-0.662,0.576-2.37,0.862-5.001,0.862c-2.658,0-4.283-0.292-4.93-0.884
			c-0.648-0.589-0.947-1.98-0.947-4.177V338h5v20.083c0,0.441,0.089,0.754,0.198,0.934c0.115,0.183,0.323,0.271,0.599,0.271
			c0.246,0,0.66-0.066,0.783-0.201c0.129-0.129,0.42-0.323,0.42-0.578v-0.426V338h5V358.23z M340.543,381.803
			c-1.145,0.055-1.34-0.782-2.554-0.663l0.034-1.895l2.561,0.043C339.492,380.517,340.619,380.099,340.543,381.803z M348,346.269
			c0,1.125-0.518,1.983-0.882,2.566c-0.367,0.584-1.126,0.965-1.938,1.141c0.873,0.332,1.728,0.788,2.067,1.365
			c0.337,0.584,0.753,1.485,0.753,2.711v3.973c0,2.227-0.689,3.577-1.395,4.159c-0.716,0.584-2.672,0.816-5.211,0.816H336v-25h5.365
			c2.568,0,4.541,0.617,5.244,1.199c0.707,0.584,1.391,2.303,1.391,4.507V346.269z M357.061,363l-0.396-5h-2.072l-0.397,5h-4.812
			l3.137-25h6.268l3.16,25H357.061z M337.541,331.95c-0.039,0.005-0.079,0.005-0.113,0.005c-0.426,0-0.828-0.32-1.108-0.639
			L326.496,320h-0.57l3.119-68.73c-0.043-0.047-0.09-0.022-0.127-0.076l-8.401-12.204c-0.175-0.25-0.254-0.99-0.254-0.99h-0.07
			l1.108-21.32L370,216.064v0.073c0,0,0.385,0.074,0.628,0.232l19.448,12.504c0.418,0.273,0.924,0.736,0.924,1.236v96.426
			c0,0.025-0.351,0.05-0.352,0.076c-0.005,0.084-0.186,0.165-0.205,0.245c-0.008,0.036-0.099,0.072-0.108,0.107
			c-0.033,0.108-0.12,0.214-0.177,0.311c-0.013,0.021-0.05,0.04-0.063,0.061c-0.051,0.078-0.118,0.15-0.183,0.218
			c-0.026,0.027-0.058,0.052-0.086,0.077c-0.067,0.061-0.143,0.114-0.221,0.162c-0.021,0.013-0.038,0.03-0.058,0.042
			c-0.006,0.003-0.015,0.004-0.021,0.007c-0.096,0.051-0.199,0.089-0.308,0.118c-0.023,0.006-0.047,0.008-0.07,0.012
			c-0.063,0.014-0.126,0.029-0.192,0.035L337.541,331.95z M376,363h-4.812L369,351.124V363h-4v-25h3.95l3.05,13.183V338h4V363z
			 M385.887,363l-0.396-5h-2.076l-0.396,5h-4.81l3.133-25h6.268l3.162,25H385.887z M390.033,212.075l-4.146-2.545l12.645-44.642
			l13.415,10.862L390.033,212.075z M418.953,296.14l-18.252-9.803l1.146-2.08l22.498,2.947L418.953,296.14z M434.507,397.401
			c-2.017,0.708-1.543-1.016-2.54-1.312c0.617-0.708,1.215-0.191,3.223-0.591C434.834,396.023,434.521,396.523,434.507,397.401z
			 M440.98,264.447l-37.642-5.603l0.677-4.31l38.107-5.074L440.98,264.447z M403.188,234.079l-2.342-5.704l44.754-38.769
			l5.678,21.274L403.188,234.079z M473.638,206.139c4.224-0.483,6.483,0.898,6.353,4.593
			C477.164,213.896,471.498,211.464,473.638,206.139z M477.667,236.649c-1.893-0.395-2.421-2.381-1.543-3.922
			c2.022-1.242,3.313-0.264,4.804,0.149C480.512,234.349,479.718,235.692,477.667,236.649z M288.277,514.47
			c-2.5,0.537-2.254-1.588-3.785-1.963c0.198-0.807,1.135-0.974,1.289-1.873c1.166-0.047,1.337,0.787,2.551,0.666
			c-0.977,1.375-1.552-0.482-3.223,0.596C285.238,513.653,288.736,512.187,288.277,514.47z M316.452,479.357
			c-3.653-1.425-6.427-1.222-8.942-2.716c0.15-0.691,0.658-0.338,0.651,0.009c0.073-6.979,7.048-11.644,12.905-5.489
			C321.613,476.025,318.861,477.5,316.452,479.357z M340.603,453.697c2.873-4.364,9.532-7,14.782-3.585
			c0.492,5.396,4.962,6.949,4.936,12.792C351.279,465.711,341.355,464.386,340.603,453.697z M381.16,444.194
			c-0.457-1.965,2.225-0.729,1.311-3.14C385.28,441.559,382.64,446.206,381.16,444.194z M393.031,499.72
			c-2.608-0.209-4.453-1.162-7.013-1.391c0.005-2.978,1.475-4.477,3.311-5.656c2.424-0.045,3.044,1.65,5.067,2.013
			C394.221,496.643,393.709,498.253,393.031,499.72z M429.395,473.627c-0.782,0.72-2.299,0.67-3.879,0.579
			c0.119-1.596,0.192-3.073-1.229-3.189c0.585-1.379,1.623-2.237,3.877-1.85C428.037,471.17,429.83,471.319,429.395,473.627z
			 M432.872,456.532c0.721-2.391,4.352,0.538,6.396,0.732C438.327,460.534,433.367,458.969,432.872,456.532z M438.227,480.148
			c0.15-1.957-1.428-3.603,0.088-5.102c1.857,0.532,3.686,1.1,4.477,2.62C442.705,479.993,440.832,480.446,438.227,480.148z
			 M509.92,184.507c1.854,1.903-1.794,3.852-3.436,2.586C505.263,186.155,507.688,182.188,509.92,184.507z M505.561,280.64
			c0.791-1.26,0.587-2.719,0.054-3.189c1.134-2.223,1.017,1.867,3.204,0.701l-0.051,3.164c-1.61-0.121-1.995,0.962-3.24,1.216
			C503.149,284.109,508.996,280.12,505.561,280.64z M495.414,473.489c-0.375,2.956-4.256,6.538-7.15,6.884
			c-5.532,0.624-7.166-4.626-11.458-5.947l0.099-5.709C482.998,462.421,496.494,464.687,495.414,473.489z M497.389,156.236
			c0.004-0.767,0.227-1.437,0.697-2.062c1.283-0.737,2.023,0.172,2.904,0.675C501.154,156.77,498.506,157.252,497.389,156.236z
			 M508.802,439.354c-0.796-0.869-2.757-0.69-4.456-0.719c0.017-1.041,0.033-2.104,0.053-3.165c1.213-1.462,3.986-1.345,4.503-1.819
			C511.677,434.829,510.463,437.86,508.802,439.354z M513.175,149.978c0.855-0.288,1.63-0.304,2.401-0.357
			c0.558,0.823,0.615,1.541-0.347,1.886c0.171-0.616-0.046-0.862-0.679-0.513c-0.139-0.429,0.489-0.604,0.855-0.87
			C514.357,149.29,513.635,151.331,513.175,149.978z M514.273,306.523c-0.338-2.29,1.939-1.903,3.897-1.825
			c-0.758,0.746-0.604,1.284,0.605,1.284C518.219,307.31,515.348,307.677,514.273,306.523z M539.594,357.901l-1.907-0.037
			c-0.351-1.527-0.933-2.968,1.332-3.164c-0.124,0.529-0.637,0.637-0.649,1.258C538.78,356.638,539.827,356.653,539.594,357.901z
			 M538.768,213.534c1.109,1.209-0.061,1.675,0.51,2.724c-1.434,0.317-3.219,1.679-4.284,0.866
			C534.408,214.659,536.424,213.006,538.768,213.534z M524.451,344.286c1.148-0.35,2.658-0.279,3.237-1.217
			c1.149,0.783,0.456,3.314,1.204,4.48c-0.854,0.842-2.783,0.601-4.506,0.572L524.451,344.286z M517.867,245.064
			c-0.689,2.095,0.85,2.095,2.53,1.937c-0.5,0.574-0.726,1.444-0.671,2.531c-2.496,1.391-2.805-0.928-4.487-1.973
			C516.047,246.605,515.868,244.752,517.867,245.064z"/>
	</g>
</g>
</svg>
