<?xml version="1.0" encoding="utf-8"?>
<!-- Generator: Adobe Illustrator 16.0.0, SVG Export Plug-In . SVG Version: 6.00 Build 0)  -->
<!DOCTYPE svg PUBLIC "-//W3C//DTD SVG 1.1//EN" "http://www.w3.org/Graphics/SVG/1.1/DTD/svg11.dtd">
<svg version="1.1" id="Layer_1" xmlns="http://www.w3.org/2000/svg" xmlns:xlink="http://www.w3.org/1999/xlink" x="0px" y="0px"
	 width="138px" height="138px" viewBox="0 0 138 138" enable-background="new 0 0 138 138" xml:space="preserve">
<path fill="#00B6F2" d="M110.4,18.4H27.6c-5.083,0-9.2,4.117-9.2,9.2v82.8c0,5.082,4.117,9.199,9.2,9.199h46V78.2H59.8V64.4h13.8
	v-7.411c0-14.03,6.836-20.189,18.497-20.189c5.585,0,8.538,0.414,9.937,0.603V50.6h-7.954c-4.95,0-6.679,2.613-6.679,7.903V64.4
	h14.508l-1.969,13.8H87.4V119.6h23c5.082,0,9.199-4.117,9.199-9.199V27.6C119.6,22.517,115.479,18.4,110.4,18.4z"/>
</svg>
