<?xml version="1.0" encoding="utf-8"?>
<!-- Generator: Adobe Illustrator 16.0.0, SVG Export Plug-In . SVG Version: 6.00 Build 0)  -->
<!DOCTYPE svg PUBLIC "-//W3C//DTD SVG 1.1//EN" "http://www.w3.org/Graphics/SVG/1.1/DTD/svg11.dtd">
<svg version="1.1" id="Layer_1" xmlns="http://www.w3.org/2000/svg" xmlns:xlink="http://www.w3.org/1999/xlink" x="0px" y="0px"
	 width="138px" height="138px" viewBox="0 0 138 138" enable-background="new 0 0 138 138" xml:space="preserve">
<g>
	<circle fill="#00B6F2" cx="69" cy="69" r="18.4"/>
	<path fill="#00B6F2" d="M91.996,13.8h-46C28.244,13.8,13.8,28.249,13.8,46.004v46c0,17.752,14.449,32.196,32.205,32.196h46
		c17.752,0,32.196-14.448,32.196-32.204v-46C124.2,28.244,109.752,13.8,91.996,13.8z M69,96.6c-15.221,0-27.6-12.379-27.6-27.6
		c0-15.221,12.379-27.6,27.6-27.6c15.221,0,27.6,12.379,27.6,27.6C96.6,84.221,84.221,96.6,69,96.6z M101.2,41.4
		c-2.54,0-4.601-2.061-4.601-4.6c0-2.539,2.061-4.6,4.601-4.6c2.539,0,4.6,2.061,4.6,4.6C105.8,39.339,103.739,41.4,101.2,41.4z"/>
</g>
</svg>
