<?xml version="1.0" encoding="utf-8"?>
<!-- Generator: Adobe Illustrator 15.0.0, SVG Export Plug-In . SVG Version: 6.00 Build 0)  -->
<!DOCTYPE svg PUBLIC "-//W3C//DTD SVG 1.1//EN" "http://www.w3.org/Graphics/SVG/1.1/DTD/svg11.dtd">
<svg version="1.1" id="Layer_1" xmlns="http://www.w3.org/2000/svg" xmlns:xlink="http://www.w3.org/1999/xlink" x="0px" y="0px"
	 width="453.704px" height="235.185px" viewBox="0 0 453.704 235.185" enable-background="new 0 0 453.704 235.185"
	 xml:space="preserve">
<path fill="#455C64" d="M405.943,187.082c-0.379,0-0.757-0.107-1.086-0.32l-15.198-9.831c-0.57-0.369-0.914-1.001-0.914-1.68V82.363
	l-10.523-15.859c-0.218-0.327-0.334-0.712-0.334-1.105V37.215c0-0.733,0.401-1.408,1.047-1.759c0.645-0.349,1.43-0.318,2.045,0.083
	l26.056,16.974c0.566,0.369,0.908,1,0.908,1.676v130.894c0,0.732-0.4,1.406-1.044,1.757
	C406.601,187.001,406.271,187.082,405.943,187.082z M392.745,174.163l11.198,7.243V55.272l-22.056-14.368v23.891l9.875,14.882
	c0.588,0.348,0.982,0.989,0.982,1.722V174.163z"/>
<polygon fill-rule="evenodd" clip-rule="evenodd" fill="#455C64" points="314.022,36.208 379.888,35.122 379.888,65.4 312.757,65.4 
	"/>
<path fill="#455C64" d="M336.151,192.436c-0.573,0-1.121-0.246-1.503-0.68l-13.337-15.184c-0.518-0.591-0.643-1.43-0.319-2.145
	c0.325-0.716,1.037-1.176,1.822-1.176h67.931c1.104,0,2,0.896,2,2s-0.896,2-2,2h-63.512l9.761,11.113l68.796-5.277
	c1.132-0.08,2.063,0.74,2.147,1.841c0.085,1.102-0.74,2.063-1.841,2.147l-69.792,5.354
	C336.253,192.434,336.202,192.436,336.151,192.436z"/>
<path fill="#455C64" d="M326.237,83.76c-0.654,0-1.267-0.319-1.641-0.856l-11.398-16.361c-0.426-0.611-0.478-1.409-0.131-2.069
	c0.344-0.66,1.026-1.074,1.771-1.074h65.049c0.663,0,1.283,0.328,1.655,0.877l10.855,16.001c0.414,0.611,0.458,1.401,0.114,2.055
	s-1.02,1.064-1.759,1.068l-64.506,0.36C326.245,83.76,326.241,83.76,326.237,83.76z M318.67,67.398l8.607,12.355l59.706-0.334
	l-8.155-12.021H318.67z"/>
<g>
	<rect x="338.481" y="104.889" fill-rule="evenodd" clip-rule="evenodd" fill="#455C64" width="6" height="49"/>
	<path fill-rule="evenodd" clip-rule="evenodd" fill="#455C64" d="M324.023,81.578l-3.485,93.311h69.943v-93.49L324.023,81.578z
		 M353.481,165.889h-22v-75h22V165.889z M384.481,166.889h-9.299l-7.701-38.264v38.264h-9v-76h8.56l8.44,37.736V90.889h9V166.889z"
		/>
</g>
<polygon fill-rule="evenodd" clip-rule="evenodd" fill="#455C64" points="46.97,89.759 49.362,178.581 94.542,172.778 
	92.149,146.381 68.592,151.129 67.304,126.347 90.954,125.698 90.077,98.876 "/>
<polygon fill-rule="evenodd" clip-rule="evenodd" fill="#455C64" points="197.567,87.193 205.128,103.045 215.994,103.213 
	208.753,173.527 233.06,176.896 232.9,103.213 273.177,101.793 273.177,84.837 "/>
<polygon fill-rule="evenodd" clip-rule="evenodd" fill="#455C64" points="281.281,84.934 281.281,101.949 288.321,102.871 
	293.781,171.961 307.839,175.965 307.378,85.253 "/>
<path fill-rule="evenodd" clip-rule="evenodd" fill="#455C64" d="M147.36,86.052L95.464,99.146l6.072,74.181l20.427,2.73
	l-6.812-39.88l14.357-3.954l1.402,43.674l17.55-2.89L147.36,86.052z M129.509,118.184l-15.555,4.251l-3.187-12.163l20.144-4.456
	L129.509,118.184z"/>
<path fill-rule="evenodd" clip-rule="evenodd" fill="#455C64" d="M188.399,130.429c13.149-0.356,15.551-14.523,13.067-24.96
	c-2.036-8.564-9.387-10.528-9.387-10.528l-41.227-8.51l2.396,86.964l12.971,2.762l-1.744-45.253l12.117,2.758l2.666,42.331
	l23.923-2.301L188.399,130.429z M177.954,119.535l-13.824-3l0.256-12.828l16.079,3.547L177.954,119.535z"/>
<path fill-rule="evenodd" clip-rule="evenodd" fill="#455C64" d="M284.596,158l-24.275,3.52l-2.999-15.148l23.96-5.104
	l-3.051-33.553l-37.749,0.37v68.688l45.118-4.146L284.596,158z M254.655,118.889h14.801l1.196,13.661l-13.619,2.593L254.655,118.889
	z"/>
</svg>
