<?xml version="1.0" encoding="utf-8"?>
<!-- Generator: Adobe Illustrator 16.0.0, SVG Export Plug-In . SVG Version: 6.00 Build 0)  -->
<!DOCTYPE svg PUBLIC "-//W3C//DTD SVG 1.1//EN" "http://www.w3.org/Graphics/SVG/1.1/DTD/svg11.dtd">
<svg version="1.1" id="Layer_1" xmlns="http://www.w3.org/2000/svg" xmlns:xlink="http://www.w3.org/1999/xlink" x="0px" y="0px"
	 width="436.477px" height="427.479px" viewBox="0 0 436.477 427.479" enable-background="new 0 0 436.477 427.479"
	 xml:space="preserve">
<polygon fill="#005A75" points="317.36,179.264 322.989,182.717 352.731,133.41 334.522,118.666 "/>
<polygon fill="#005A75" points="337.663,204.846 340.838,212.588 406.124,181.096 398.415,152.218 "/>
<polygon fill="#005A75" points="341.963,240.354 341.049,246.208 392.139,253.81 393.692,233.465 "/>
<polygon fill="#005A75" points="339.026,280.699 337.465,283.522 362.243,296.828 369.565,284.699 "/>
<path fill="#005A75" d="M321.37,340.092c-0.379,0-0.756-0.106-1.086-0.319l-15.197-9.832c-0.57-0.368-0.914-1-0.914-1.68v-92.888
	l-10.523-15.858c-0.218-0.328-0.334-0.713-0.334-1.105v-28.184c0-0.733,0.4-1.408,1.047-1.759c0.645-0.349,1.43-0.318,2.045,0.083
	l26.057,16.974c0.566,0.369,0.908,1,0.908,1.676v130.894c0,0.732-0.4,1.406-1.045,1.758
	C322.028,340.011,321.698,340.092,321.37,340.092z M308.17,327.173l11.199,7.243V208.282l-22.057-14.368v23.892l9.875,14.881
	c0.588,0.349,0.982,0.989,0.982,1.723V327.173L308.17,327.173z"/>
<polygon fill="#005A75" points="66.317,52.089 69.998,185.418 141.041,184.273 138.062,139.336 99.636,146.658 97.65,108.472 
	134.8,107.467 133.447,66.135 "/>
<polygon fill="#005A75" points="54.746,197.495 54.367,221.925 78.449,221.199 76.867,334.156 114.728,338.634 104.506,221.199 
	166.57,219.935 166.57,194.51 "/>
<polygon fill="#005A75" points="177.427,194.51 177.427,220.022 188.284,220.022 191.813,328.862 219.769,332.662 219.769,192.881 
	"/>
<polygon fill="#005A75" points="229.45,189.218 295.314,188.132 295.314,218.41 228.183,218.41 "/>
<path fill="#005A75" d="M251.579,345.444c-0.574,0-1.121-0.245-1.504-0.68l-13.337-15.184c-0.518-0.591-0.643-1.43-0.319-2.145
	c0.326-0.717,1.037-1.176,1.822-1.176h67.932c1.104,0,2,0.896,2,2c0,1.104-0.896,2-2,2h-63.512l9.76,11.112l68.797-5.276
	c1.131-0.08,2.063,0.739,2.146,1.84c0.086,1.103-0.74,2.063-1.84,2.147l-69.793,5.354
	C251.679,345.442,251.627,345.444,251.579,345.444z"/>
<path fill="#005A75" d="M241.665,236.771c-0.654,0-1.268-0.319-1.642-0.856l-11.397-16.36c-0.426-0.611-0.479-1.41-0.131-2.07
	c0.344-0.659,1.025-1.073,1.771-1.073h65.049c0.663,0,1.283,0.327,1.655,0.877l10.855,16.001c0.414,0.611,0.457,1.4,0.113,2.055
	s-1.02,1.064-1.76,1.068l-64.506,0.359C241.67,236.771,241.667,236.771,241.665,236.771z M234.096,220.408l8.607,12.354
	l59.705-0.334l-8.154-12.021H234.096z"/>
<g>
	<rect x="253.909" y="257.897" fill="#005A75" width="6" height="49"/>
	<path fill="#005A75" d="M239.45,234.588l-3.484,93.312h69.943v-93.49L239.45,234.588z M268.909,318.897h-22v-75h22V318.897z
		 M299.909,319.897h-9.3l-7.7-38.264v38.264h-9v-76h8.559l8.441,37.736v-37.736h9V319.897z"/>
</g>
<path fill="#005A75" d="M221.015,47.208L141.041,63.84l10.775,118.563l30.062-0.756l-10.491-60.741l22.121-6.1l2.158,65.177
	l27.051-3.035L221.015,47.208z M193.505,95.891l-23.965,6.546l-4.914-18.74l31.039-6.866L193.505,95.891z"/>
<path fill="#005A75" d="M306.944,68.276c-3.143-13.2-14.462-16.222-14.462-16.222l-63.526-9.799l3.688,131.643h19.994l-2.694-66.662
	l18.677,4.342l-4.496,65.32h36.867l-14.18-70.891C307.069,105.463,310.774,84.354,306.944,68.276z M270.29,93.72l-21.302-4.624
	l0.388-19.768l23.344,4.768L270.29,93.72z"/>
<path fill="#005A75" d="M182.041,309.864l-35.284,5.428l-4.613-23.343l36.912-7.87l-4.612-55.37l-58.085,3.529l7.058,106.396
	l60.255-9.771L182.041,309.864z M135.718,247.897h25.107l2.035,22.871l-23.104,4.551L135.718,247.897z"/>
<path fill="#005A75" d="M76.492,361.199c0-3.076,0.45-4.988,1.35-5.741c0.898-0.753,3.116-1.128,6.66-1.128
	c3.635,0,5.891,0.399,6.77,1.198c0.879,0.8,1.319,2.689,1.319,5.671v4.612H85.56v-4.412c0-0.652-0.084-1.096-0.249-1.328
	c-0.166-0.233-0.463-0.35-0.889-0.35c-0.334,0-0.566,0.104-0.699,0.309c-0.134,0.207-0.201,0.662-0.201,1.369v19.474
	c0,0.601,0.078,1.021,0.23,1.267c0.152,0.25,0.416,0.37,0.789,0.37c0.333,0,0.586-0.094,0.758-0.278
	c0.174-0.187,0.261-0.446,0.261-0.778v-0.579v-4.834h-1.298v-5.354h8.329v17.057h-3.097l-1.279-2.217
	c-0.717,0.932-1.471,1.576-2.256,1.929s-1.924,0.526-3.414,0.526c-2.346,0-3.938-0.429-4.783-1.287
	c-0.847-0.858-1.27-2.73-1.27-5.623V361.199L76.492,361.199z"/>
<path fill="#005A75" d="M96.285,387.742v-33.214h8.01c3.488,0,5.711,0.396,6.668,1.188c0.961,0.793,1.439,2.688,1.439,5.684v3.436
	c0,2.41-0.236,4.021-0.709,4.833c-0.472,0.812-1.328,1.438-2.567,1.878c1.199,0.346,2.044,0.915,2.538,1.708
	c0.492,0.791,0.738,2.021,0.738,3.687v10.803h-7.05V376.34c0-0.692-0.112-1.159-0.341-1.397c-0.225-0.239-0.652-0.359-1.278-0.359
	h-0.418v13.16L96.285,387.742L96.285,387.742z M105.352,366.233v-4.555c0-0.826-0.095-1.332-0.28-1.517
	c-0.187-0.188-0.566-0.28-1.139-0.28h-0.618v8.508c0.08,0,0.192,0.006,0.339,0.021c0.146,0.015,0.252,0.021,0.32,0.021
	c0.531,0,0.894-0.091,1.089-0.27c0.191-0.182,0.289-0.521,0.289-1.03V366.233z"/>
<path fill="#005A75" d="M115.179,387.742l4.253-33.212h8.508l4.294,33.212h-6.629l-0.541-6.552h-2.815l-0.54,6.552H115.179z
	 M122.609,375.799h2.136l-1.058-12.8L122.609,375.799z"/>
<polygon fill="#005A75" points="135.21,387.742 135.21,354.53 146.375,354.53 146.375,359.881 142.201,359.881 142.201,366.793 
	146.375,366.793 146.375,372.205 142.201,372.205 142.201,387.742 "/>
<rect x="149.889" y="354.53" fill="#005A75" width="6.991" height="33.212"/>
<path fill="#005A75" d="M160.576,361.199c0-3.089,0.446-5.007,1.338-5.751c0.893-0.746,3.117-1.118,6.672-1.118
	c3.635,0,5.891,0.399,6.77,1.198c0.878,0.8,1.319,2.689,1.319,5.671v4.612h-7.032v-4.412c0-0.64-0.08-1.071-0.238-1.299
	c-0.159-0.226-0.46-0.338-0.899-0.338c-0.333,0-0.565,0.1-0.698,0.299c-0.134,0.199-0.201,0.646-0.201,1.338v19.434
	c0,0.611,0.077,1.044,0.23,1.297c0.153,0.255,0.416,0.38,0.789,0.38c0.319,0,0.569-0.096,0.748-0.288
	c0.182-0.193,0.27-0.464,0.27-0.81v-0.579v-7.209h7.032v7.409c0,3.049-0.453,4.971-1.358,5.762
	c-0.906,0.793-3.137,1.187-6.691,1.187c-3.594,0-5.835-0.402-6.721-1.217c-0.885-0.813-1.328-2.722-1.328-5.73v-19.835H160.576z"/>
<path fill="#005A75" d="M179.469,387.742l4.255-33.212h8.508l4.293,33.212h-6.63l-0.54-6.552h-2.814l-0.54,6.552H179.469z
	 M186.899,375.799h2.137l-1.059-12.8L186.899,375.799z"/>
<path fill="#005A75" d="M209.529,361.199c0-3.089,0.445-5.007,1.338-5.751c0.893-0.746,3.115-1.118,6.67-1.118
	c3.635,0,5.893,0.399,6.771,1.198c0.878,0.8,1.319,2.689,1.319,5.671v4.612h-7.031v-4.412c0-0.64-0.08-1.071-0.239-1.299
	c-0.159-0.226-0.46-0.338-0.899-0.338c-0.332,0-0.565,0.1-0.699,0.299c-0.133,0.199-0.199,0.646-0.199,1.338v19.434
	c0,0.611,0.077,1.044,0.229,1.297c0.154,0.255,0.418,0.38,0.79,0.38c0.319,0,0.569-0.096,0.749-0.288
	c0.18-0.193,0.27-0.464,0.27-0.81v-0.579v-7.209h7.031v7.409c0,3.049-0.453,4.971-1.359,5.762c-0.904,0.793-3.137,1.187-6.69,1.187
	c-3.595,0-5.835-0.402-6.72-1.217c-0.886-0.813-1.328-2.722-1.328-5.73v-19.835H209.529z"/>
<path fill="#005A75" d="M229.122,354.53h7.028v26.383c0,0.597,0.078,1.021,0.229,1.27c0.152,0.244,0.416,0.368,0.789,0.368
	c0.334,0,0.588-0.091,0.76-0.271c0.172-0.178,0.261-0.441,0.261-0.787v-0.579V354.53h7.028v26.582c0,3.021-0.448,4.923-1.346,5.701
	c-0.899,0.779-3.134,1.168-6.703,1.168c-3.606,0-5.853-0.397-6.729-1.196c-0.879-0.8-1.317-2.688-1.317-5.673V354.53L229.122,354.53
	z"/>
<path fill="#005A75" d="M248.915,387.742v-33.214h8.008c3.488,0,5.713,0.396,6.67,1.189c0.959,0.791,1.439,2.686,1.439,5.682v3.476
	c0,1.53-0.25,2.692-0.748,3.483c-0.5,0.793-1.305,1.31-2.406,1.549c1.185,0.453,2.006,1.07,2.467,1.857
	c0.459,0.787,0.688,2.01,0.688,3.674v5.395c0,3.021-0.484,4.932-1.447,5.723c-0.967,0.793-3.172,1.188-6.621,1.188L248.915,387.742
	L248.915,387.742z M257.98,365.214v-3.693c0-0.691-0.097-1.139-0.289-1.338c-0.194-0.199-0.596-0.3-1.209-0.3h-0.538v6.949
	c0.066,0,0.172,0.009,0.319,0.03c0.146,0.021,0.245,0.029,0.299,0.029c0.506,0,0.871-0.086,1.09-0.26
	c0.22-0.174,0.328-0.445,0.328-0.818V365.214z M257.98,380.713v-6.271c0-0.691-0.097-1.139-0.289-1.338
	c-0.194-0.201-0.596-0.299-1.209-0.299h-0.538v9.545c0.066,0,0.172,0.006,0.319,0.021c0.146,0.015,0.245,0.021,0.299,0.021
	c0.506,0,0.871-0.084,1.09-0.25c0.22-0.166,0.328-0.441,0.328-0.828V380.713z"/>
<path fill="#005A75" d="M267.808,387.742l4.254-33.212h8.508l4.293,33.212h-6.63l-0.54-6.552h-2.813l-0.539,6.552H267.808z
	 M275.237,375.799h2.137l-1.059-12.8L275.237,375.799z"/>
<polygon fill="#005A75" points="287.838,387.742 287.838,354.53 294.37,354.53 297.866,371.546 297.866,354.53 303.958,354.53 
	303.958,387.742 297.407,387.742 293.892,371.466 293.892,387.742 "/>
<path fill="#005A75" d="M306.934,387.742l4.252-33.212h8.51l4.293,33.212h-6.629l-0.541-6.552h-2.814l-0.541,6.552H306.934z
	 M314.364,375.799h2.137l-1.059-12.8L314.364,375.799z"/>
<rect x="119.519" y="348.658" fill="#005A75" width="8.416" height="3.258"/>
</svg>
