<?xml version="1.0" encoding="utf-8"?>
<!-- Generator: Adobe Illustrator 16.0.0, SVG Export Plug-In . SVG Version: 6.00 Build 0)  -->
<!DOCTYPE svg PUBLIC "-//W3C//DTD SVG 1.1//EN" "http://www.w3.org/Graphics/SVG/1.1/DTD/svg11.dtd">
<svg version="1.1" id="Layer_1" xmlns="http://www.w3.org/2000/svg" xmlns:xlink="http://www.w3.org/1999/xlink" x="0px" y="0px"
	 width="138px" height="138px" viewBox="0 0 138 138" enable-background="new 0 0 138 138" xml:space="preserve">
<path fill="#005977" d="M69,9.2c-27.945,0-50.6,22.655-50.6,50.6c0,33.276,32.899,49.206,37.021,52.914
	c4.209,3.786,7.687,12.272,9.089,17.085c0.681,2.336,2.595,3.519,4.49,3.568c1.9-0.055,3.809-1.236,4.49-3.568
	c1.402-4.813,4.88-13.295,9.089-17.085C86.701,109.006,119.6,93.076,119.6,59.8C119.6,31.855,96.945,9.2,69,9.2z M69,73.6
	c-7.622,0-13.8-6.177-13.8-13.8C55.2,52.178,61.378,46,69,46s13.8,6.178,13.8,13.8C82.8,67.422,76.622,73.6,69,73.6z"/>
</svg>
