<?xml version="1.0" encoding="utf-8"?>
<!-- Generator: Adobe Illustrator 16.0.0, SVG Export Plug-In . SVG Version: 6.00 Build 0)  -->
<!DOCTYPE svg PUBLIC "-//W3C//DTD SVG 1.1//EN" "http://www.w3.org/Graphics/SVG/1.1/DTD/svg11.dtd">
<svg version="1.1" id="Layer_1" xmlns="http://www.w3.org/2000/svg" xmlns:xlink="http://www.w3.org/1999/xlink" x="0px" y="0px"
	 width="138px" height="138px" viewBox="0 0 138 138" enable-background="new 0 0 138 138" xml:space="preserve">
<path fill="#005977" d="M97.635,82.289c-1.867-1.095-4.162-1.071-6.021,0.033l-9.411,5.607c-2.106,1.255-4.738,1.107-6.67-0.4
	c-3.34-2.609-8.717-6.997-13.396-11.676c-4.678-4.678-9.066-10.055-11.675-13.395c-1.509-1.932-1.656-4.563-0.4-6.67l5.607-9.412
	c1.108-1.858,1.118-4.172,0.023-6.04l-13.81-23.589c-1.338-2.282-3.997-3.404-6.569-2.774c-2.498,0.607-5.741,2.088-9.14,5.493
	C15.53,30.112,9.876,48.065,49.905,88.095s57.979,34.38,68.628,23.731c3.408-3.408,4.885-6.656,5.496-9.158
	c0.621-2.567-0.482-5.208-2.76-6.542C115.584,92.801,103.32,85.619,97.635,82.289z"/>
</svg>
