<?xml version="1.0" encoding="utf-8"?>
<!-- Generator: Adobe Illustrator 15.0.0, SVG Export Plug-In . SVG Version: 6.00 Build 0)  -->
<!DOCTYPE svg PUBLIC "-//W3C//DTD SVG 1.1//EN" "http://www.w3.org/Graphics/SVG/1.1/DTD/svg11.dtd">
<svg version="1.1" id="Layer_1" xmlns="http://www.w3.org/2000/svg" xmlns:xlink="http://www.w3.org/1999/xlink" x="0px" y="0px"
	 width="600px" height="600px" viewBox="0 0 600 600" enable-background="new 0 0 600 600" xml:space="preserve">
<path fill-rule="evenodd" clip-rule="evenodd" fill="#878787" d="M164.61,166.308c-6.893,23.346-4.132,59.479-2.047,85.985
	c25.171-1.444,1.954-51.274,20.472-59.371c0.551,23.799-4.676,57.409,4.095,81.89c22.711-10.044,4.775-60.738,18.426-79.843
	c5.912,23.276-4.049,62.903,4.094,92.127c31.68-6.534,2.583-73.847,24.567-90.08c-2.659,25.213-3.417,63.221,2.047,79.843
	c25.909-14.355,5.324-75.201,26.615-94.174c12.489,2.523,24.369,5.658,38.897,6.142c-4.91,30.789-6.268,71.922,0,102.363
	c28.646-4.794-2.265-69.143,22.521-77.796c-2.52,38.014-1.671,53.752,6.142,92.126c28.826-8.024-2.486-76.188,20.473-90.079
	c-0.965,30.991,0.581,59.473,4.095,85.985c32.675-2.821,0.252-63.913,22.52-83.938c0.174,18.679-3.549,45.627,2.047,67.56
	c25.914-8.207,5.106-63.135,24.567-77.796c12.571,0.56,23.609,3.071,34.804,4.095c-5.273,8.409-14.403,16.486-14.331,28.662
	c0.045,7.577,6.517,11.172,8.188,18.425c8.471,36.739-12.283,47.768-4.094,124.883c-91.389-17.131-193.615-41.129-286.617-63.465
	c0.041-6.103-0.191-12.477,6.142-12.284c-18.218-17.496,5.399-67.256,0-100.316C145.42,190.032,130.573,163.959,164.61,166.308z
	 M166.657,317.806c4.095-0.512,6.313-15.952,0-16.378C155.881,300.376,155.881,318.857,166.657,317.806z M209.65,328.042
	c4.265,3.327,9.042,0.172,10.236-4.095c1.366-7.166-0.146-10.544-3.838-11.174c-2.019-0.344-4.436-0.682-6.398,0.938
	C206.729,316.441,206.729,325.311,209.65,328.042z M262.879,338.278c5.243-2.044,5.885-14.657-2.048-14.331
	C254.653,324.043,254.482,340.67,262.879,338.278z M309.966,348.515c6.178-0.097,6.349-16.722-2.048-14.331
	C302.676,336.227,302.033,348.84,309.966,348.515z M359.1,358.751c6.178-0.097,6.35-16.722-2.047-14.331
	C350.875,344.516,350.704,361.143,359.1,358.751z M402.093,368.987c13.267,3.54,12.702-15.503,2.047-14.331
	C401.318,357.295,396.207,367.195,402.093,368.987z"/>
<path fill-rule="evenodd" clip-rule="evenodd" fill="#878787" d="M447.132,325.994c0,32.757-2.875,79.012-4.095,116.694
	c-22.499-4.114-42.226-11.004-65.512-14.331c-3.847-2.979-0.248-13.398-4.095-16.378c-8.292-10.16-18.872-1.067-32.756-12.284
	c-10.441-8.434-8.722-25.639-22.521-26.613c-8.696-0.614-19.873,15.758-28.661,16.378c-21.646,1.523-49.436-55.666-57.323-6.142
	c-9.288-0.948-12.141-8.334-22.52-8.189c-13.828,13.779-33.805,2.934-53.229,0c0-14.331,0-28.662,0-42.992
	c92.078,20.521,186.791,42.248,279.963,61.674C443.55,395.985,432.289,326.848,447.132,325.994z M209.65,356.703
	c-1.31,9.205,11.082,11.992,14.331,10.236c2.133-1.705,0.171-8.614-8.188-12.283C211.697,352.695,210.162,354.059,209.65,356.703z
	 M348.863,389.46c-2.168,12.739,18.47,13.056,18.426,2.047C362.404,389.533,354.174,384.752,348.863,389.46z"/>
<path fill="#878787" d="M299.729,583.268c-75.646,0-146.766-29.458-200.256-82.949c-53.491-53.489-82.949-124.607-82.949-200.254
	S45.983,153.298,99.474,99.807c53.49-53.49,124.609-82.949,200.256-82.949c75.647,0,146.766,29.458,200.256,82.949
	s82.948,124.61,82.948,200.257s-29.458,146.765-82.948,200.254C446.495,553.81,375.376,583.268,299.729,583.268z M299.729,29.142
	c-149.387,0-270.921,121.535-270.921,270.922c0,149.385,121.535,270.92,270.921,270.92c149.386,0,270.921-121.535,270.921-270.92
	C570.65,150.677,449.115,29.142,299.729,29.142z"/>
<g>
	<path fill-rule="evenodd" clip-rule="evenodd" fill="#878787" d="M557.685,276.86C548.025,156.036,447.174,47.243,309.966,41.425
		c-63.982-2.713-116.58,16.704-159.687,47.087c-34.033,23.987-80.493,74.601-85.985,116.694c-6.473-1.635-6.731,3.335-8.189,6.142
		c-36.28,69.807-5.568,195.33,30.709,233.638c5.714-3.635,11.69-6.986,17.813-9.986h-3.012c0.537-3-0.382-7.114,3.924-8.287
		c2.173,1.003,3.436,3.203,4.232,5.254c26.915-13.681,56.045-25.091,79.29-42.444C173.396,388.127,160,384.682,148,379.224
		c0-15.694,0-31.394,0-47.087c-2-4.188-12.908-0.112-13.703-6.143c-7.984-33.432,11.664-85.597,5.688-118.741
		c-2.42-13.425-10.59-16.998-8.16-28.662c1.885-9.051,12.449-14.999,18.439-18.425c5.789-2.523,12.644-2.523,18.433,0
		c23.853-24.961,88.458-8.779,112.603,4.095c8.772,3.754,0.514,17.741,22.522,18.425c30.604-29.653,128.105-12.976,139.215,20.473
		c9.025,4.622,25.292,2.005,28.662,12.283c3.162,14.607-6.324,24.321-8.189,36.851c-0.601,4.034,4.222,8.637,4.095,14.331
		c-0.123,5.506-4.719,7.498-4.095,12.284c0.754,5.774,5.226,12.523,6.143,18.425c4.684,30.161-0.557,64.425-4.095,88.032
		c-2.048,1.877-6.226,5.746-6.142,1.535c0.338-16.92,6.994-67.56-3.825-60.701c0.146,36.85-0.865,90.527-2.999,129.115
		c-28.977-2.529-67.42-17.374-85.644-17.744c-11.676-0.238-32.828,12.451-46.746,19.449c-48.629,24.447-99.719,49.21-141.261,73.701
		c28.45,12.476,63.773,25.725,103.35,28.572l-0.239-0.475c0.488-0.485,1.281-0.855,1.321-1.483c0.798,0.088,1.122,1.563,1.813,1.96
		c-0.021,0.065-0.083,0.119-0.12,0.18c45.541,2.683,88.824-9.396,121.662-23.43c-0.6-2.209-0.459-4.557,0.738-6.439
		c2.209-3.484,9.017-6.307,12.514-7.949c1.085,2.091,0.789,6.094,4.476,5.533c0.075,0.188,0.14,0.351,0.212,0.53
		c2.093-1.052,4.128-2.101,6.086-3.141c5.321-5.384-3.308-1.611-2.047-8.188c8.001,8.002,23.997-5.247,28.058-12.542
		c-4.65,1.443-9.8,0.784-13.048-3.181l-0.993,0.496c0.118-0.608,0.558-1.096,0.836-1.652c-9.776-13.697,15.526-22.795,22.242-13.263
		c2.287,4.366,1.539,8.524-0.772,11.775c14.526-6.327,25.594-25.807,37.379-36.911c-1.551-0.239-3.937-2.08-5.295-4.202
		c-0.328,0.112-0.675,0.156-0.995,0.101c0.116-0.608-0.277-1.363-0.157-1.959c0.094-0.08,0.168-0.101,0.254-0.154
		c-0.389-1.576,0.06-3.085,2.099-4.021c3.533,3.51-3.009,8.05,6.142,8.189c-0.007-2.055,1.658-2.436,2.048-4.094
		C538.569,409.526,564.016,356.072,557.685,276.86z M100.707,193.042c2.797,1.868,4.133,5.898,2.707,8.705
		c-1.346,0.06-2.673-0.316-4.208,0.462C93.682,201.66,93.178,192.049,100.707,193.042z M88.346,325.146
		c-2.963,0.264-3.211-3.758-2.399-5.273c-0.21,0.695,0.844,0.819,0.898-0.462C91.667,318.357,91.601,324.844,88.346,325.146z
		 M84.719,220h0.922c0.756,2,2.289,4.317,3.309,7.042c1.02,2.749,1.688,5.972-1.501,6.921C82.416,230.232,85.902,224,84.719,220z
		 M72.963,213.675c0.26-0.032,0.282,0.092,0.316,0.232c4.021,0.036,6.565,2.291,8.129,3.445c2.139,5.072,2.631,13.689-4.23,16.058
		c-0.646,1.107-1.262,2.233-2.399,2.977c-1.995-0.028-3.253-0.584-5.13-0.696c-2.069-1.631-3.493-3.683-4.227-6.65
		C63.755,222.244,67.009,215.743,72.963,213.675z M77.781,313.902c-0.3-0.923-0.363-2.009-0.3-3.208
		C81.09,308.061,81.98,315.061,77.781,313.902z M59.392,236.387c-1.324,0.078-1.863-0.43-2.409-0.916
		c-0.318-0.859,0.756-0.662,0.604-1.379C59.12,234.076,60.238,235.325,59.392,236.387z M61.191,252.669
		c-3.353-3.007-0.538-10.184,4.23-10.56C74.813,241.397,67.875,258.651,61.191,252.669z M69.648,264.357
		c1.985-0.174,2.391-0.248,3.927,0.468c0.086,1.479,0.194,2.301-0.296,3.667C70.298,269.743,67.009,266.634,69.648,264.357z
		 M78.385,420.778c-2.619,0.017-3.321-1.449-5.422-1.835c-0.638-2.027-0.596-4.589-1.209-6.648
		c3.893-3.334-0.504-11.348,3.922-14.45c0.222,0.332-0.612,0.548,0.912,0.235c3.485,3.583,0.282,10.916,4.219,13.981
		C79.963,414.955,81.544,418.879,78.385,420.778z M86.538,344.412c-0.452,0.111-1.569-0.268-1.511,0.222
		c-2.107-1.474-4.782-3.589-4.518-6.413c0.09-0.979,1.559-1.686,1.813-2.762c0.194-0.848-0.627-1.879-0.606-2.751
		c0.044-3.015,0.384-6.817,1.798-8.948c3.179,1.335,2.541,7.781,3.628,11.934C90.569,337.928,88.434,341.961,86.538,344.412z
		 M87.742,351.512c-0.646-0.534-0.898-1.815,0-2.285c1.527,0.184,2.519,0.775,1.807,2.055
		C88.632,351.127,88.666,351.674,87.742,351.512z M90.755,373.766c-0.872,0.064-1.038-0.436-1.51-0.684
		c0.208-0.836,1.136-1.128,1.51-1.846C91.524,371.946,91.369,373.046,90.755,373.766z M101.013,276.059
		c-1.654,0.05-2.191,0.944-3.92,0.92c-1.899-1.078-1.58-3.839-3.017-5.278c0.026-4.916,8.493-6.505,9.042-0.906
		C102.385,272.674,102.395,274.349,101.013,276.059z M102.82,367.795c-3.329-2.453,1.646-5.885,3.619-2.519
		C106.459,367.044,104.859,367.58,102.82,367.795z M105.244,226.059c-0.89-0.881-0.404-1.697,0.296-2.515
		c1.083,0.316,1.641,1.042,2.103,1.832C106.911,226.115,106.273,225.903,105.244,226.059z M149.275,387.528
		c1.414,0.428,0.812,1.966-0.308,2.292c-0.538-0.209-0.934-0.506-1.208-0.926C147.696,388.012,148.604,387.86,149.275,387.528z
		 M117.903,204h2.113c0.708,0-0.658,1.081,0.294,1.405c-0.372,0.315-1.03,0.421-1.807,0.441C118.185,205.13,117.253,205,117.903,204
		z M115.784,292.119c0.54-0.518,2.323-0.076,2.419-0.923c3.063,1.799,3.347,6.724,0.3,8.715
		C113.111,300.508,113.507,294.002,115.784,292.119z M119.71,398.305c-0.57-0.028-0.2-0.76-0.9-0.689
		c0.078-0.473,0.82-0.454,0.9-0.918c0.971-0.2,0.624,0.6,1.204,0.691C120.824,397.929,119.488,397.521,119.71,398.305z
		 M126.336,245.1c-1.027-0.1-1.686,0.092-2.397,0.224c-0.382-0.548-1.109-0.84-0.901-1.832
		C124.608,242.133,127.321,243.358,126.336,245.1z M132.674,279.728c-0.834-0.126-1.25-0.568-2.105-0.684
		c-0.252-1.184,0.689-1.465,0.912-2.303c0.808-0.162,0.6,0.472,1.194,0.472C132.16,277.984,132.914,278.548,132.674,279.728z
		 M132.378,226.059c0.768-0.45,1.907-0.897,3.024-0.458c-0.166,0.894,0.536,1.122,0.294,2.069c-0.735,0.366-1.695,0.546-2.719,0.682
		C132.462,227.842,132.254,227.074,132.378,226.059z M135.104,256.792c2.333,2.517,2.773,8.565-3.024,8.487
		C128.747,263.541,128.389,256.344,135.104,256.792z M176.098,94.874c-2.035,0.024-2.65-1.032-2.999-2.299
		C175.004,91.375,177.193,93.241,176.098,94.874z M186.063,133.003c-0.858-0.184-0.778,0.243-1.523,0.151
		c-0.616-0.552,0.088-1.154,0.315-2.154h1.516C186.502,132,186.246,132.455,186.063,133.003z M176.639,90.734
		c0.861-0.861,1.417-1.952,2.525-2.559c2.683,0.089,2.306,2.535,2.559,4.51C179.968,92.066,178.361,91.363,176.639,90.734z
		 M207.159,137.623c-1.271-0.902,0.15-1.778,0.573-2.681C209.354,135.813,210.095,137.448,207.159,137.623z M332.644,93.039
		c0.436,0.118,0.754,0.336,1.204,0.46v1.14c-0.289-0.132-1.118-0.528-0.91,0.236c-0.252-0.116-0.492-0.236-0.897-0.236
		C331.842,93.807,332.686,93.765,332.644,93.039z M271.555,60.693c3.172,0.141,3.462,4.5-0.623,3.915
		C269.447,63.432,270.812,61.64,271.555,60.693z M210.5,71.938c-1.381-1.231,0.076-2.741,1.797-3.439
		C214.496,69.463,213.313,72.916,210.5,71.938z M261.625,89.342c-0.237,1.664-4.625,0.388-4.625,0v-2.897
		c1,0.061,2.57,0.137,2.738-0.688c2.505-0.244,2.383,1.449,2.771,2.854c-1.895,0-1.176-1.98-3.739-1.456
		C258.146,89.08,260.739,88.555,261.625,89.342z M342.702,109h-9.888C330.61,123,322,128.82,310,130.957v10.024
		c0,2.461-1.541,4.457-4,4.457c-2.461,0-4-1.996-4-4.457v-9.745C289,129.728,281.827,123,279.501,109h-8.074
		c-2.46,0-4.455-1.537-4.455-4s1.995-4,4.455-4h7.74C280.695,91,289,78.91,302,77.307v-7.6c0-2.463,1.539-4.456,4-4.456
		c2.459,0,4,1.993,4,4.456v7.875C322,79.863,331.695,91,333.148,101h9.554c2.46,0,4.455,1.537,4.455,4S345.162,109,342.702,109z
		 M351.959,98.941c-3.654-1.867,0.475-5.742,2.992-2.714C354.559,97.595,354.018,98.827,351.959,98.941z M371,132.774
		c-2,0.391-1.293-0.638-2.765-0.447c0.331-0.431,1.784-0.69,0.729-0.926c0.264-0.898,1.551,0.766,1.007-1.365
		c-3.392,2.862-2.972-1.668,1.028-1.381V132.774z M363.64,70.341c-1.81,1.235-1.12-1.867-0.688-3.176
		c1.169,0.894,2.936,1.309,2.791,3.176C365.174,69.458,361.559,68.862,363.64,70.341z M371.221,141.197
		c-0.57-2.49,2.384-3.208,3.628-1.812C374.043,140.304,372.881,140.918,371.221,141.197z M370.576,109.058
		c-2.32,1.049-3.153-0.696-5.041-0.538c-1.767-2.421,1.735-3.174,3.612-4.365c1.511,0.471,2.192,1.606,2.139,3.255
		c-2.038,0.458-1.882-0.753-3.577-0.553C367.346,108.601,371.259,107.09,370.576,109.058z M282.531,483.518
		c0.126-1.149-0.859-1.1-0.346-2.285c0.804-0.461,1.29-0.006,1.985-0.178c0.742,0.877-0.078,1.248,0.676,2.147
		C283.833,484.021,283.255,483.525,282.531,483.518z M305.617,512.08c0.238,0.355,0.736-0.029,1.142-0.172
		c0.338,1.263-0.872,0.707-1.651,0.831c-0.474-1.06,0.036-1.808,1.33-2.308c0.186,0.248,0.035,0.368-0.168,0.5
		c0.161,0.324,0.529,0.045,0.833-0.02C307.194,512.117,305.596,511.092,305.617,512.08z M325.546,485.207
		c-7.447,3.847-6.938-10.33,1.327-6.394C328.851,481.752,327.512,484.195,325.546,485.207z M329.009,499.464
		c2.157-0.163,4.38-0.528,5.768,1.607C333.081,502.951,329.717,503.219,329.009,499.464z M333.629,539.781
		c-0.231-0.912,0.336-1.539,0.004-2.463l1.658-0.834c0.619,0.582,1.415,0.7,1.793,1.953
		C335.942,539.478,335.164,539.394,333.629,539.781z M360.158,531.748c-0.715,0.549-0.825,1.268-1.948,1.684
		c-1.964,2.999-6.079,7.127-10.14,7.195c-0.748,0.01-4.812-0.43-5.484-0.705c-5.695-2.334-2.666-10.869,1.394-13.899
		c2.759-2.071,5.998-2.042,8.834-2.841c0.699,0.699,1.709,0.434,2.42,1.102c0.778-0.074,0.926-1.121,1.487-0.75
		c0.725,1.147,2.018,3.347,3.724,5.063C360.232,529.609,360.31,530.715,360.158,531.748z M359.158,486.301
		c-0.834-1.188,0.014-1.827,0.834-2.463c0.455,0.545,1.125,0.443,1.488,1.291C361.121,486.261,360.136,485.673,359.158,486.301z
		 M377.635,515.547c0.448,0.775,1.124-0.48,0.826-0.832c1.875,0.168,0.808,2.139-1.155,2.623c-0.468-0.482-0.853-1.27-1.479-1.296
		c-0.212-0.985,1.795-2.071,2.305-1.983C378.795,514.811,377.771,515.045,377.635,515.547z M377.781,447.807
		c0.288,0.806,0.378,1.584-0.162,2.121c-1.174,0.798-1.617-0.646-2.477-0.793C374.78,447.813,377.115,447.383,377.781,447.807z
		 M375.502,540.805c-1.138-1.479-1.556-2.4-1.155-3.928c1.974-1.682,2.461-0.721,4.44-1.02l1.165,2.301
		C378.329,539.443,377.909,541.081,375.502,540.805z M393.613,474.258c-0.726,0.531-1.018-0.232-1.815,0.512
		c-0.286-1.557-1.293-3.34,0.82-4.123C393.859,471.882,393.997,472.934,393.613,474.258z M402.53,517.342
		c-0.278-0.992-1.149-2.191,0.308-2.627c0.246,1.079-0.586,2.079,0.842,0.823C404.344,516.472,403.504,516.926,402.53,517.342z
		 M410.094,463.505c-1.158,0.954-1.481-0.491-2.631,0.504c-0.16-1.153-0.372-2.315,0.981-2.967c0.538,0.262,0.919,1.056,1.649,0.794
		C410.397,462.502,409.404,462.733,410.094,463.505z M413.391,517.586c1.559,0.287,2.904,1.171,4.133,2.447
		C415.279,524.484,410.441,520.668,413.391,517.586z M421.136,467.352c0.27-0.896-1.042-2.335,0.672-2.783
		c0.224,0.336,0.22,0.62-0.009,0.824c0.347,0.567,1.222-0.38,1.642-0.022c-0.004,0.731-0.312,1.348-0.157,2.134
		C422.537,467.508,421.915,467.195,421.136,467.352z M423.608,511.632c-0.479-0.716-0.575-1.296-0.491-1.812
		c0.957-0.662,1.411,0.18,1.819,1.142L423.608,511.632z M424.594,475.039c-0.665-0.186-1.23-1.302-0.985-1.947
		c0.771-0.712,0.992,0.289,1.644-0.022C425.64,473.932,425.412,474.581,424.594,475.039z M446.685,478.668
		c-4.799,3.473-5.175-7.018,0.653-3.623C447.188,476.596,447.71,477.924,446.685,478.668z M462.167,461.023
		c-1.388-1.713,0.273-3.209,1.646-2.484C463.744,459.526,463.896,460.582,462.167,461.023z M466.119,441.785
		c-1.381-2.113,1.918-3.917,3.619-3.459c1.065,1.162-0.049,1.631,0.514,2.631C469.404,441.713,467.159,442.75,466.119,441.785z
		 M469.916,446.848c-0.8,0.465-1.459,0.527-1.979,0.18c-0.81-1.072,0.022-1.619,0.993-2.144
		C469.582,445.08,470.152,446.209,469.916,446.848z M467.121,459.347c0.535-0.392,0.825-0.032,0.496,0.151
		c0.237,0.356,0.735-0.029,1.149-0.164c-0.414-0.791,0.665-2.494,0-2.475c0.753-1.156,1.443,0.955,3.284-0.004
		C473.19,458.785,467.955,461.186,467.121,459.347z M471.624,178.04c0.438,0.716,1.298,0.112,2.033-0.044
		c-0.265,0.926-0.167,2.811,1.208,2.406c0.793,2.14-1.959-0.398-3.211,1.609c0.842,1.394,2.934-0.858,4.014-0.021
		C475.056,187.605,464.523,181.807,471.624,178.04z M470.498,160.296c-1.006-1.52-0.948-2.681,0.821-3.277
		c0.784-0.124,0.788,2.031,1.815,1.125C473.498,159.781,471.909,160.446,470.498,160.296z M475.493,230.259
		c1.023-1.67,0.396-5.795,4.122-1.298C477.898,230.405,477.209,228.818,475.493,230.259z M504.636,199.58
		c2.023,1.41,0.645,1.58,2.844,3.708c-2.485,2.08-3.96,0.801-5.738,0.811C500.472,201.909,502.551,200.739,504.636,199.58z
		 M503.668,334.277c-1.092,0.818-1.613-0.065-2.629,0.506l-1.326-2.623c0.952-1.125,2.965-1.451,4.135-0.832
		C503.056,332.469,503.432,333.368,503.668,334.277z M515.39,414.885c-0.521-1.441-0.07-2.577,1.649-3.277
		c0.546,1.5,0.828,1.88,0.979,2.771C516.936,415.211,516.159,415.047,515.39,414.885z M523.829,345.779
		c1.733,0.322,2.909,2.264,3.898,4.777C524.617,355.585,516.284,348.6,523.829,345.779z"/>
	<path fill-rule="evenodd" clip-rule="evenodd" fill="#878787" d="M310,86.763V101h14.144C322.884,95,316,88.736,310,86.763z"/>
	<path fill-rule="evenodd" clip-rule="evenodd" fill="#878787" d="M302,122.236V109h-13.3C290.701,117,294,120.935,302,122.236z"/>
	<path fill-rule="evenodd" clip-rule="evenodd" fill="#878787" d="M288.169,101H302V86.309C294,87.75,289.546,95,288.169,101z"/>
	<path fill-rule="evenodd" clip-rule="evenodd" fill="#878787" d="M310,121.782c6-1.761,11.801-4.782,13.613-12.782H310V121.782z"/>
</g>
</svg>
