<?xml version="1.0" encoding="utf-8"?>
<!-- Generator: Adobe Illustrator 16.0.0, SVG Export Plug-In . SVG Version: 6.00 Build 0)  -->
<!DOCTYPE svg PUBLIC "-//W3C//DTD SVG 1.1//EN" "http://www.w3.org/Graphics/SVG/1.1/DTD/svg11.dtd">
<svg version="1.1" id="Layer_1" xmlns="http://www.w3.org/2000/svg" xmlns:xlink="http://www.w3.org/1999/xlink" x="0px" y="0px"
	 width="138px" height="138px" viewBox="0 0 138 138" enable-background="new 0 0 138 138" xml:space="preserve">
<path fill="#00B6F2" d="M128.8,31.91c-4.401,1.955-9.131,3.271-14.095,3.864c5.07-3.036,8.957-7.843,10.787-13.575
	c-4.738,2.811-9.99,4.853-15.584,5.957c-4.477-4.771-10.852-7.751-17.908-7.751c-13.552,0-24.537,10.989-24.537,24.536
	c0,1.923,0.221,3.8,0.635,5.589c-20.392-1.021-38.47-10.792-50.577-25.641c-2.107,3.625-3.317,7.838-3.317,12.342
	c0,8.51,4.329,16.022,10.912,20.419c-4.021-0.129-7.807-1.233-11.114-3.068c0,0.106,0,0.203,0,0.308
	c0,11.891,8.455,21.809,19.683,24.058c-2.056,0.562-4.227,0.861-6.467,0.861c-1.578,0-3.119-0.156-4.614-0.438
	c3.124,9.748,12.186,16.846,22.922,17.043c-8.395,6.582-18.975,10.506-30.475,10.506c-1.978,0-3.933-0.114-5.856-0.345
	C20.056,113.537,32.95,117.6,46.81,117.6c45.136,0,69.81-37.39,69.81-69.815c0-1.063-0.023-2.121-0.068-3.174
	C121.348,41.147,125.512,36.828,128.8,31.91z"/>
</svg>
