<?xml version="1.0" encoding="utf-8"?>
<!-- Generator: Adobe Illustrator 16.0.0, SVG Export Plug-In . SVG Version: 6.00 Build 0)  -->
<!DOCTYPE svg PUBLIC "-//W3C//DTD SVG 1.1//EN" "http://www.w3.org/Graphics/SVG/1.1/DTD/svg11.dtd">
<svg version="1.1" id="Layer_1" xmlns="http://www.w3.org/2000/svg" xmlns:xlink="http://www.w3.org/1999/xlink" x="0px" y="0px"
	 width="350.48px" height="350.48px" viewBox="42.999 38.499 350.48 350.48" enable-background="new 42.999 38.499 350.48 350.48"
	 xml:space="preserve">
<polygon fill="#FFFFFF" points="305.358,178.763 310.988,182.216 340.729,132.909 322.521,118.165 "/>
<polygon fill="#FFFFFF" points="325.661,204.345 328.838,212.087 394.122,180.595 386.413,151.717 "/>
<polygon fill="#FFFFFF" points="329.963,239.854 329.048,245.707 380.139,253.309 381.691,232.964 "/>
<polygon fill="#FFFFFF" points="327.024,280.198 325.465,283.021 350.241,296.327 357.563,284.198 "/>
<path fill="#FFFFFF" d="M309.369,339.591c-0.379,0-0.757-0.106-1.086-0.319l-15.198-9.83c-0.569-0.369-0.914-1.002-0.914-1.682
	v-92.888l-10.522-15.858c-0.217-0.328-0.334-0.713-0.334-1.104v-28.184c0-0.733,0.4-1.408,1.047-1.759
	c0.646-0.349,1.431-0.318,2.046,0.083l26.056,16.974c0.566,0.369,0.908,1,0.908,1.676v130.894c0,0.732-0.399,1.406-1.044,1.757
	C310.026,339.51,309.697,339.591,309.369,339.591z M296.17,326.672l11.198,7.243V207.781l-22.056-14.368v23.892l9.874,14.881
	c0.589,0.35,0.981,0.989,0.981,1.724L296.17,326.672L296.17,326.672z"/>
<polygon fill="#FFFFFF" points="54.316,51.588 57.997,184.917 129.04,183.772 126.061,138.835 87.635,146.157 85.649,107.971 
	122.799,106.966 121.446,65.634 "/>
<polygon fill="#FFFFFF" points="42.745,196.994 42.366,221.424 66.448,220.698 64.866,333.655 102.727,338.133 92.505,220.698 
	154.569,219.434 154.569,194.009 "/>
<polygon fill="#FFFFFF" points="165.426,194.009 165.426,219.521 176.283,219.521 179.812,328.361 207.768,332.161 207.768,192.38 
	"/>
<polygon fill="#FFFFFF" points="217.448,188.717 283.313,187.631 283.313,217.909 216.182,217.909 "/>
<path fill="#FFFFFF" d="M239.577,344.943c-0.573,0-1.121-0.245-1.503-0.68l-13.338-15.185c-0.518-0.591-0.643-1.431-0.318-2.146
	c0.325-0.717,1.037-1.177,1.822-1.177h67.931c1.104,0,2,0.896,2,2s-0.896,2-2,2h-63.512l9.761,11.113l68.796-5.276
	c1.133-0.08,2.063,0.739,2.147,1.842c0.085,1.102-0.74,2.063-1.841,2.146l-69.792,5.354
	C239.678,344.941,239.627,344.943,239.577,344.943z"/>
<path fill="#FFFFFF" d="M229.663,236.27c-0.654,0-1.267-0.318-1.642-0.855l-11.397-16.359c-0.426-0.611-0.478-1.41-0.131-2.07
	c0.344-0.659,1.026-1.073,1.771-1.073h65.049c0.664,0,1.283,0.327,1.655,0.877l10.854,16.001c0.414,0.611,0.458,1.4,0.114,2.055
	c-0.345,0.655-1.021,1.064-1.76,1.068l-64.507,0.359C229.67,236.27,229.666,236.27,229.663,236.27z M222.096,219.907l8.605,12.354
	l59.706-0.334l-8.155-12.021L222.096,219.907L222.096,219.907z"/>
<g>
	<rect x="241.907" y="257.396" fill="#FFFFFF" width="6" height="49"/>
	<path fill="#FFFFFF" d="M227.449,234.087l-3.485,93.312h69.943v-93.489L227.449,234.087z M256.907,318.396h-22v-75h22V318.396z
		 M287.907,319.396h-9.3l-7.7-38.265v38.265h-9v-76h8.56l8.44,37.735v-37.735h9V319.396z"/>
</g>
<path fill="#FFFFFF" d="M209.014,46.707L129.04,63.339l10.775,118.563l30.062-0.756l-10.49-60.741l22.12-6.1l2.158,65.177
	l27.052-3.035L209.014,46.707z M181.504,95.39l-23.965,6.546l-4.914-18.74l31.039-6.866L181.504,95.39z"/>
<path fill="#FFFFFF" d="M294.943,67.775c-3.145-13.2-14.463-16.222-14.463-16.222l-63.526-9.799l3.688,131.643h19.994l-2.695-66.662
	l18.678,4.342l-4.496,65.32h36.867l-14.18-70.891C295.067,104.962,298.772,83.853,294.943,67.775z M258.288,93.219l-21.302-4.624
	l0.388-19.768l23.345,4.768L258.288,93.219z"/>
<path fill="#FFFFFF" d="M170.04,309.363l-35.284,5.428l-4.612-23.343l36.912-7.87l-4.612-55.37l-58.085,3.529l7.058,106.396
	l60.255-9.771L170.04,309.363z M123.717,247.396h25.107l2.035,22.871l-23.104,4.551L123.717,247.396z"/>
<path fill="#FFFFFF" d="M64.491,360.698c0-3.076,0.45-4.988,1.35-5.741c0.898-0.753,3.116-1.128,6.66-1.128
	c3.636,0,5.892,0.399,6.771,1.198c0.879,0.8,1.318,2.688,1.318,5.671v4.612h-7.03v-4.412c0-0.652-0.084-1.096-0.249-1.328
	c-0.166-0.233-0.463-0.35-0.89-0.35c-0.334,0-0.565,0.104-0.698,0.309c-0.135,0.207-0.201,0.662-0.201,1.369v19.474
	c0,0.601,0.078,1.021,0.229,1.267c0.152,0.25,0.416,0.37,0.789,0.37c0.333,0,0.586-0.094,0.758-0.276
	c0.175-0.188,0.262-0.447,0.262-0.779v-0.579v-4.834h-1.298v-5.354h8.328v17.058h-3.097l-1.279-2.216
	c-0.717,0.931-1.471,1.574-2.256,1.928s-1.924,0.527-3.414,0.527c-2.346,0-3.938-0.431-4.782-1.287
	c-0.848-0.859-1.271-2.731-1.271-5.623V360.698L64.491,360.698z"/>
<path fill="#FFFFFF" d="M84.284,387.241v-33.214h8.01c3.488,0,5.711,0.396,6.668,1.188c0.961,0.793,1.439,2.688,1.439,5.686v3.435
	c0,2.41-0.236,4.022-0.709,4.833c-0.472,0.813-1.328,1.438-2.567,1.878c1.199,0.347,2.044,0.915,2.538,1.708
	c0.492,0.791,0.738,2.021,0.738,3.688v10.803h-7.05v-11.405c0-0.692-0.112-1.159-0.341-1.397c-0.226-0.238-0.652-0.358-1.278-0.358
	h-0.418v13.16L84.284,387.241L84.284,387.241z M93.351,365.732v-4.555c0-0.826-0.096-1.332-0.28-1.518
	c-0.188-0.188-0.566-0.28-1.139-0.28h-0.618v8.509c0.08,0,0.191,0.006,0.339,0.021c0.146,0.015,0.252,0.021,0.32,0.021
	c0.53,0,0.894-0.091,1.089-0.27c0.19-0.182,0.289-0.521,0.289-1.03V365.732z"/>
<path fill="#FFFFFF" d="M103.178,387.241l4.253-33.212h8.508l4.294,33.212h-6.629l-0.541-6.552h-2.815l-0.54,6.552H103.178z
	 M110.608,375.298h2.136l-1.058-12.8L110.608,375.298z"/>
<polygon fill="#FFFFFF" points="123.209,387.241 123.209,354.029 134.374,354.029 134.374,359.38 130.2,359.38 130.2,366.292 
	134.374,366.292 134.374,371.704 130.2,371.704 130.2,387.241 "/>
<rect x="137.888" y="354.029" fill="#FFFFFF" width="6.99" height="33.212"/>
<path fill="#FFFFFF" d="M148.575,360.698c0-3.089,0.446-5.007,1.338-5.751c0.894-0.746,3.117-1.118,6.672-1.118
	c3.636,0,5.892,0.399,6.771,1.198c0.878,0.8,1.318,2.688,1.318,5.671v4.612h-7.031v-4.412c0-0.641-0.08-1.071-0.238-1.299
	c-0.159-0.227-0.46-0.34-0.899-0.34c-0.333,0-0.564,0.102-0.697,0.299c-0.135,0.201-0.201,0.646-0.201,1.34v19.434
	c0,0.611,0.077,1.044,0.229,1.297c0.153,0.256,0.416,0.381,0.789,0.381c0.319,0,0.569-0.097,0.748-0.289
	c0.183-0.192,0.271-0.464,0.271-0.81v-0.579v-7.209h7.031v7.409c0,3.049-0.452,4.971-1.357,5.762
	c-0.906,0.793-3.137,1.188-6.691,1.188c-3.594,0-5.835-0.403-6.721-1.219c-0.885-0.813-1.328-2.722-1.328-5.729v-19.835
	L148.575,360.698L148.575,360.698z"/>
<path fill="#FFFFFF" d="M167.468,387.241l4.255-33.212h8.508l4.293,33.212h-6.63l-0.54-6.552h-2.814l-0.54,6.552H167.468z
	 M174.898,375.298h2.137l-1.059-12.8L174.898,375.298z"/>
<path fill="#FFFFFF" d="M197.528,360.698c0-3.089,0.445-5.007,1.338-5.751c0.894-0.746,3.115-1.118,6.67-1.118
	c3.636,0,5.894,0.399,6.771,1.198c0.879,0.8,1.318,2.688,1.318,5.671v4.612h-7.03v-4.412c0-0.641-0.08-1.071-0.239-1.299
	c-0.159-0.227-0.46-0.34-0.899-0.34c-0.332,0-0.564,0.102-0.699,0.299c-0.133,0.201-0.198,0.646-0.198,1.34v19.434
	c0,0.611,0.077,1.044,0.229,1.297c0.154,0.256,0.418,0.381,0.79,0.381c0.319,0,0.569-0.097,0.749-0.289
	c0.18-0.192,0.271-0.464,0.271-0.81v-0.579v-7.209h7.03v7.409c0,3.049-0.453,4.971-1.357,5.762c-0.904,0.793-3.138,1.188-6.69,1.188
	c-3.595,0-5.835-0.403-6.72-1.219c-0.886-0.813-1.328-2.722-1.328-5.729v-19.835L197.528,360.698L197.528,360.698z"/>
<path fill="#FFFFFF" d="M217.12,354.029h7.028v26.383c0,0.597,0.078,1.021,0.229,1.27c0.153,0.244,0.417,0.368,0.789,0.368
	c0.334,0,0.588-0.091,0.761-0.271c0.172-0.18,0.262-0.441,0.262-0.787v-0.579v-26.384h7.029v26.582c0,3.021-0.449,4.923-1.349,5.701
	c-0.897,0.778-3.134,1.168-6.703,1.168c-3.604,0-5.853-0.397-6.729-1.196c-0.879-0.8-1.317-2.688-1.317-5.673V354.029
	L217.12,354.029z"/>
<path fill="#FFFFFF" d="M236.913,387.241v-33.214h8.008c3.489,0,5.716,0.396,6.67,1.188c0.962,0.791,1.439,2.687,1.439,5.683v3.476
	c0,1.53-0.249,2.692-0.748,3.483c-0.499,0.793-1.304,1.31-2.406,1.549c1.187,0.453,2.006,1.07,2.468,1.855
	c0.459,0.788,0.688,2.012,0.688,3.676v5.395c0,3.021-0.484,4.932-1.447,5.723c-0.967,0.793-3.173,1.188-6.621,1.188L236.913,387.241
	L236.913,387.241z M245.979,364.713v-3.693c0-0.69-0.098-1.139-0.289-1.338c-0.194-0.199-0.596-0.3-1.209-0.3h-0.537v6.949
	c0.066,0,0.172,0.009,0.318,0.03c0.146,0.021,0.245,0.029,0.299,0.029c0.506,0,0.871-0.086,1.09-0.261
	c0.221-0.174,0.328-0.446,0.328-0.817V364.713z M245.979,380.212v-6.271c0-0.691-0.098-1.139-0.289-1.34
	c-0.194-0.199-0.596-0.299-1.209-0.299h-0.537v9.545c0.066,0,0.172,0.008,0.318,0.021c0.146,0.016,0.245,0.021,0.299,0.021
	c0.506,0,0.871-0.086,1.09-0.252c0.221-0.166,0.328-0.439,0.328-0.826V380.212z"/>
<path fill="#FFFFFF" d="M255.807,387.241l4.254-33.212h8.508l4.293,33.212h-6.629l-0.541-6.552h-2.813l-0.539,6.552H255.807z
	 M263.236,375.298h2.136l-1.058-12.8L263.236,375.298z"/>
<polygon fill="#FFFFFF" points="275.838,387.241 275.838,354.029 282.368,354.029 285.865,371.045 285.865,354.029 291.956,354.029 
	291.956,387.241 285.406,387.241 281.891,370.965 281.891,387.241 "/>
<path fill="#FFFFFF" d="M294.933,387.241l4.253-33.212h8.51l4.292,33.212h-6.629l-0.541-6.552h-2.814l-0.54,6.552H294.933z
	 M302.362,375.298h2.137l-1.059-12.8L302.362,375.298z"/>
<rect x="107.518" y="348.157" fill="#FFFFFF" width="8.416" height="3.258"/>
</svg>
