<?xml version="1.0" encoding="utf-8"?>
<!-- Generator: Adobe Illustrator 16.0.0, SVG Export Plug-In . SVG Version: 6.00 Build 0)  -->
<!DOCTYPE svg PUBLIC "-//W3C//DTD SVG 1.1//EN" "http://www.w3.org/Graphics/SVG/1.1/DTD/svg11.dtd">
<svg version="1.1" id="Layer_1" xmlns="http://www.w3.org/2000/svg" xmlns:xlink="http://www.w3.org/1999/xlink" x="0px" y="0px"
	 width="316.172px" height="353px" viewBox="0 0 316.172 353" enable-background="new 0 0 316.172 353" xml:space="preserve">
<g>
	<polygon fill="#EDEDA2" points="266.16,138.757 271.79,142.21 301.531,92.904 283.323,78.16 	"/>
	<polygon fill="#EDEDA2" points="286.463,164.339 289.641,172.082 354.924,140.589 347.215,111.711 	"/>
	<polygon fill="#EDEDA2" points="290.766,199.85 289.851,205.701 340.941,213.303 342.493,192.959 	"/>
	<polygon fill="#EDEDA2" points="287.826,240.193 286.268,243.018 311.043,256.322 318.365,244.193 	"/>
	<polygon fill="#536726" points="188.383,194.264 184.766,287.754 254.973,287.754 254.973,193.902 	"/>
	<polygon fill="#E5E895" points="254.973,194.264 244.115,177.902 244.115,147.625 270.171,166.691 270.171,297.586 
		254.973,287.754 254.973,193.902 	"/>
	<polygon fill="#015267" points="15.118,11.583 18.799,144.912 89.842,143.767 86.863,98.83 48.438,106.152 46.451,67.965 
		83.602,66.96 82.248,25.628 	"/>
	<polygon fill="#015267" points="3.547,156.989 3.168,181.418 27.25,180.693 25.668,293.65 63.529,298.127 53.308,180.693 
		115.371,179.428 115.371,154.003 	"/>
	<polygon fill="#015267" points="126.229,154.003 126.229,179.518 137.085,179.518 140.614,288.357 168.57,292.156 168.57,152.375 	
		"/>
	<polygon fill="#FFFFFF" points="223.125,279.129 223.125,203.131 231.27,203.131 239.682,241.129 239.682,203.131 248.91,203.131 
		248.91,279.129 239.41,279.129 232.083,241.129 232.083,279.129 	"/>
	<polygon fill="#536726" points="178.25,148.711 244.115,147.625 244.115,177.904 176.984,177.904 	"/>
	<polyline fill="#99B135" points="254.973,287.756 184.766,287.756 197.066,303.193 270.171,297.586 	"/>
	<polygon fill="#99B135" points="176.984,177.902 188.383,194.264 254.971,193.902 244.115,177.902 	"/>
	<path fill="#FFFFFF" d="M196,203v75h22v-75H196z M209,266h-6v-49h6V266z"/>
	<path fill="#015267" d="M169.816,6.702L89.841,23.334l10.775,118.563l30.062-0.756L120.187,80.4l22.121-6.1l2.158,65.177
		l27.052-3.035L169.816,6.702z M142.307,55.384l-23.965,6.546l-4.914-18.74l31.039-6.866L142.307,55.384z"/>
	<path fill="#015267" d="M255.745,27.77c-3.144-13.2-14.462-16.222-14.462-16.222l-63.527-9.996L181.443,133h19.994l-2.694-66.467
		l18.677,4.244L212.924,136h36.867l-14.18-70.695C255.869,64.76,259.574,43.848,255.745,27.77z M219.09,53.213l-21.301-4.624
		l0.387-19.768l23.344,4.768L219.09,53.213z"/>
	<path fill="#015267" d="M130.842,269.357l-35.284,5.428l-4.613-23.342l36.912-7.871l-4.612-55.369l-58.085,3.529l7.058,106.395
		l60.255-9.77L130.842,269.357z M84.52,207h25.107l2.035,23.066l-23.104,4.453L84.52,207z"/>
	<path fill="#B34F37" d="M25.293,320.693c0-3.076,0.45-4.988,1.35-5.742c0.898-0.752,3.116-1.127,6.66-1.127
		c3.635,0,5.891,0.4,6.77,1.197c0.879,0.801,1.319,2.69,1.319,5.672v4.613H34.36v-4.412c0-0.654-0.084-1.097-0.249-1.328
		c-0.166-0.234-0.463-0.351-0.889-0.351c-0.334,0-0.566,0.104-0.699,0.31c-0.134,0.207-0.201,0.662-0.201,1.369v19.473
		c0,0.6,0.078,1.021,0.23,1.266c0.152,0.25,0.416,0.371,0.789,0.371c0.333,0,0.586-0.094,0.758-0.279
		c0.174-0.186,0.261-0.447,0.261-0.779v-0.577v-4.834h-1.298v-5.354h8.329v17.057h-3.097l-1.279-2.217
		c-0.717,0.933-1.471,1.576-2.256,1.928c-0.785,0.354-1.924,0.527-3.414,0.527c-2.346,0-3.938-0.428-4.783-1.287
		c-0.847-0.858-1.27-2.729-1.27-5.623L25.293,320.693L25.293,320.693z"/>
	<path fill="#B34F37" d="M45.086,347.236v-33.215h8.01c3.488,0,5.711,0.397,6.668,1.188c0.961,0.793,1.439,2.688,1.439,5.685v3.434
		c0,2.41-0.236,4.023-0.709,4.834c-0.472,0.811-1.328,1.438-2.567,1.877c1.199,0.346,2.044,0.916,2.538,1.709
		c0.492,0.791,0.738,2.021,0.738,3.686v10.803h-7.05v-11.401c0-0.692-0.112-1.16-0.341-1.397c-0.225-0.24-0.652-0.359-1.278-0.359
		h-0.418v13.16h-7.03V347.236z M54.153,325.727v-4.553c0-0.826-0.095-1.332-0.28-1.518c-0.187-0.188-0.566-0.279-1.139-0.279h-0.618
		v8.508c0.08,0,0.192,0.006,0.339,0.02c0.147,0.015,0.252,0.021,0.32,0.021c0.531,0,0.894-0.09,1.089-0.271
		c0.191-0.18,0.289-0.521,0.289-1.028V325.727z"/>
	<path fill="#B34F37" d="M63.98,347.236l4.253-33.213h8.508l4.294,33.213h-6.629l-0.541-6.551H71.05l-0.54,6.551H63.98z
		 M71.41,335.293h2.136l-1.058-12.801L71.41,335.293z"/>
	<polygon fill="#B34F37" points="84.012,347.236 84.012,314.023 95.176,314.023 95.176,319.375 91.002,319.375 91.002,326.287 
		95.176,326.287 95.176,331.699 91.002,331.699 91.002,347.236 	"/>
	<rect x="98.69" y="314.023" fill="#B34F37" width="6.991" height="33.213"/>
	<path fill="#B34F37" d="M109.377,320.693c0-3.088,0.446-5.006,1.338-5.752c0.893-0.746,3.117-1.117,6.672-1.117
		c3.635,0,5.891,0.4,6.77,1.197c0.878,0.801,1.319,2.69,1.319,5.672v4.613h-7.032v-4.412c0-0.642-0.08-1.072-0.238-1.3
		c-0.159-0.227-0.46-0.34-0.899-0.34c-0.333,0-0.565,0.103-0.698,0.3c-0.134,0.2-0.201,0.646-0.201,1.34v19.432
		c0,0.613,0.077,1.045,0.23,1.297c0.153,0.256,0.416,0.381,0.789,0.381c0.319,0,0.569-0.096,0.748-0.289
		c0.182-0.193,0.27-0.463,0.27-0.809v-0.58v-7.209h7.032v7.41c0,3.049-0.453,4.971-1.358,5.762
		c-0.906,0.793-3.137,1.186-6.691,1.186c-3.594,0-5.835-0.401-6.721-1.217c-0.885-0.813-1.328-2.721-1.328-5.73v-19.834H109.377z"/>
	<path fill="#B34F37" d="M128.271,347.236l4.255-33.213h8.508l4.293,33.213h-6.63l-0.54-6.551h-2.814l-0.54,6.551H128.271z
		 M135.7,335.293h2.137l-1.059-12.801L135.7,335.293z"/>
	<path fill="#B34F37" d="M158.33,320.693c0-3.088,0.445-5.006,1.338-5.752s3.115-1.117,6.67-1.117c3.636,0,5.893,0.4,6.771,1.197
		c0.878,0.801,1.319,2.69,1.319,5.672v4.613h-7.031v-4.412c0-0.642-0.08-1.072-0.239-1.3c-0.159-0.227-0.46-0.34-0.899-0.34
		c-0.332,0-0.565,0.103-0.699,0.3c-0.133,0.2-0.199,0.646-0.199,1.34v19.432c0,0.613,0.077,1.045,0.229,1.297
		c0.154,0.256,0.418,0.381,0.79,0.381c0.319,0,0.569-0.096,0.749-0.289c0.18-0.193,0.27-0.463,0.27-0.809v-0.58v-7.209h7.031v7.41
		c0,3.049-0.453,4.971-1.359,5.762c-0.904,0.793-3.136,1.186-6.69,1.186c-3.595,0-5.835-0.401-6.72-1.217
		c-0.886-0.813-1.328-2.721-1.328-5.73v-19.834H158.33z"/>
	<path fill="#B34F37" d="M177.922,314.023h7.029v26.383c0,0.598,0.078,1.021,0.229,1.27c0.153,0.244,0.418,0.369,0.789,0.369
		c0.334,0,0.588-0.092,0.76-0.271c0.172-0.178,0.262-0.44,0.262-0.787v-0.579v-26.384h7.029v26.584c0,3.021-0.449,4.923-1.348,5.701
		c-0.898,0.779-3.133,1.168-6.703,1.168c-3.605,0-5.852-0.397-6.729-1.196c-0.879-0.802-1.318-2.689-1.318-5.673V314.023
		L177.922,314.023z"/>
	<path fill="#B34F37" d="M197.715,347.236v-33.215h8.008c3.489,0,5.715,0.397,6.67,1.19c0.961,0.791,1.439,2.687,1.439,5.683v3.475
		c0,1.529-0.249,2.693-0.748,3.484c-0.499,0.793-1.305,1.309-2.406,1.547c1.186,0.455,2.006,1.072,2.467,1.856
		c0.459,0.789,0.688,2.013,0.688,3.677v5.393c0,3.023-0.483,4.932-1.447,5.723c-0.967,0.793-3.173,1.188-6.62,1.188H197.715
		L197.715,347.236z M206.781,324.707v-3.693c0-0.69-0.098-1.139-0.289-1.338c-0.195-0.199-0.596-0.299-1.209-0.299h-0.538v6.949
		c0.067,0,0.172,0.008,0.319,0.031c0.146,0.02,0.246,0.028,0.299,0.028c0.506,0,0.871-0.086,1.09-0.26
		c0.22-0.174,0.328-0.446,0.328-0.817V324.707z M206.781,340.207v-6.271c0-0.69-0.098-1.139-0.289-1.338
		c-0.195-0.201-0.596-0.299-1.209-0.299h-0.538v9.545c0.067,0,0.172,0.006,0.319,0.02c0.146,0.017,0.246,0.021,0.299,0.021
		c0.506,0,0.871-0.084,1.09-0.25c0.22-0.166,0.328-0.441,0.328-0.828V340.207z"/>
	<path fill="#B34F37" d="M216.609,347.236l4.254-33.213h8.508l4.293,33.213h-6.63l-0.54-6.551h-2.814l-0.539,6.551H216.609z
		 M224.038,335.293h2.136l-1.058-12.801L224.038,335.293z"/>
	<polygon fill="#B34F37" points="236.641,347.236 236.641,314.023 243.17,314.023 246.667,331.039 246.667,314.023 252.758,314.023 
		252.758,347.236 246.208,347.236 242.693,330.959 242.693,347.236 	"/>
	<path fill="#B34F37" d="M255.734,347.236l4.254-33.213h8.509l4.292,33.213h-6.629l-0.541-6.551h-2.814l-0.539,6.551H255.734z
		 M263.164,335.293h2.137l-1.059-12.801L263.164,335.293z"/>
	<rect x="68.32" y="308.152" fill="#B34F37" width="8.416" height="3.258"/>
</g>
</svg>
