<?xml version="1.0" encoding="utf-8"?>
<!-- Generator: Adobe Illustrator 15.0.0, SVG Export Plug-In . SVG Version: 6.00 Build 0)  -->
<!DOCTYPE svg PUBLIC "-//W3C//DTD SVG 1.1//EN" "http://www.w3.org/Graphics/SVG/1.1/DTD/svg11.dtd">
<svg version="1.1" id="Layer_1" xmlns="http://www.w3.org/2000/svg" xmlns:xlink="http://www.w3.org/1999/xlink" x="0px" y="0px"
	 width="335px" height="405px" viewBox="0 0 335 405" enable-background="new 0 0 335 405" xml:space="preserve">
<g>
	<polygon fill-rule="evenodd" clip-rule="evenodd" fill="#192828" points="213.404,293.114 209.787,199.623 279.994,199.623 
		279.994,293.478 	"/>
	<polygon fill-rule="evenodd" clip-rule="evenodd" fill="#3D4F56" points="279.994,293.114 269.137,309.476 269.137,339.753 
		295.191,320.687 295.191,189.793 279.994,199.623 279.994,293.478 	"/>
	<polygon fill-rule="evenodd" clip-rule="evenodd" fill="#192828" points="40.139,48.143 43.821,181.471 114.863,180.326 
		111.885,135.389 73.458,142.711 71.473,104.525 108.623,103.52 107.27,62.188 	"/>
	<polygon fill-rule="evenodd" clip-rule="evenodd" fill="#192828" points="28.569,193.549 28.189,217.978 52.272,217.253 
		50.69,330.21 88.551,334.687 78.329,217.253 140.393,215.987 140.393,190.563 	"/>
	<polygon fill-rule="evenodd" clip-rule="evenodd" fill="#192828" points="151.25,190.563 151.25,216.077 162.105,216.077 
		165.635,324.917 193.592,328.716 193.592,188.934 	"/>
	<polygon fill-rule="evenodd" clip-rule="evenodd" fill="#192828" points="203.271,338.667 269.137,339.753 269.137,309.476 
		202.006,309.476 	"/>
	<polyline fill-rule="evenodd" clip-rule="evenodd" fill="#2D3A40" points="279.994,199.623 209.787,199.623 222.088,184.186 
		295.191,189.793 	"/>
	<polygon fill-rule="evenodd" clip-rule="evenodd" fill="#2D3A40" points="202.006,309.476 213.404,293.114 279.994,293.114 
		269.137,309.476 	"/>
	<path fill-rule="evenodd" clip-rule="evenodd" fill="#101B1B" d="M242,284v-76h-22v76H242z M234,270h-7v-50h7V270z"/>
	<path fill-rule="evenodd" clip-rule="evenodd" fill="#192828" d="M194.838,43.262l-79.975,16.631l10.775,118.563l30.061-0.756
		l-10.49-60.74l22.121-6.1l2.158,65.176L196.539,173L194.838,43.262z M167.328,91.943l-23.965,6.547l-4.914-18.74l31.039-6.867
		L167.328,91.943z"/>
	<path fill-rule="evenodd" clip-rule="evenodd" fill="#192828" d="M280.766,64.33c-3.143-13.201-14.461-16.223-14.461-16.223
		l-63.527-10.275L206.465,169h19.994l-2.695-66.188l18.678,4.605L237.945,173h36.867l-14.18-70.916
		C280.891,101.54,284.596,80.408,280.766,64.33z M244.111,89.773l-21.301-4.623l0.387-19.768l23.344,4.766L244.111,89.773z"/>
	<path fill-rule="evenodd" clip-rule="evenodd" fill="#192828" d="M155.863,305.917l-35.285,5.428l-4.613-23.344l36.912-7.869
		l-4.611-55.369L90.18,228.29l7.058,106.396l60.254-9.77L155.863,305.917z M109.541,243h25.107l2.035,23.346l-23.104,4.313
		L109.541,243z"/>
	<g>
		<path fill="#192828" d="M50.315,357.253c0-3.076,0.449-4.988,1.349-5.742c0.898-0.752,3.116-1.127,6.66-1.127
			c3.636,0,5.891,0.4,6.77,1.197c0.879,0.801,1.319,2.691,1.319,5.672v4.613h-7.03v-4.412c0-0.654-0.085-1.096-0.25-1.328
			c-0.166-0.234-0.463-0.35-0.889-0.35c-0.334,0-0.565,0.104-0.699,0.309c-0.134,0.207-0.2,0.662-0.2,1.369v19.473
			c0,0.598,0.077,1.021,0.229,1.266c0.153,0.25,0.417,0.371,0.789,0.371c0.333,0,0.587-0.094,0.759-0.279
			c0.173-0.186,0.261-0.447,0.261-0.779v-0.578v-4.834h-1.298v-5.354h8.328v17.057h-3.097l-1.278-2.217
			c-0.718,0.932-1.472,1.576-2.256,1.928c-0.786,0.354-1.925,0.527-3.415,0.527c-2.345,0-3.938-0.428-4.783-1.287
			c-0.847-0.859-1.269-2.732-1.269-5.623V357.253z"/>
		<path fill="#192828" d="M70.107,383.796v-33.215h8.01c3.488,0,5.711,0.398,6.668,1.189c0.961,0.793,1.44,2.688,1.44,5.684v3.434
			c0,2.41-0.236,4.023-0.71,4.834c-0.472,0.811-1.327,1.438-2.567,1.877c1.199,0.346,2.044,0.916,2.538,1.709
			c0.492,0.791,0.739,2.02,0.739,3.684v10.805h-7.051v-11.402c0-0.693-0.112-1.16-0.34-1.398c-0.226-0.24-0.653-0.359-1.279-0.359
			h-0.418v13.16H70.107z M79.174,362.286v-4.553c0-0.826-0.094-1.332-0.28-1.518c-0.187-0.188-0.565-0.279-1.139-0.279h-0.618v8.506
			c0.08,0,0.193,0.008,0.34,0.021c0.146,0.014,0.251,0.02,0.319,0.02c0.532,0,0.894-0.09,1.089-0.27
			c0.191-0.18,0.289-0.521,0.289-1.029V362.286z"/>
		<path fill="#192828" d="M89.001,383.796l4.253-33.213h8.509l4.293,33.213h-6.629l-0.541-6.551h-2.816l-0.539,6.551H89.001z
			 M96.431,371.853h2.135l-1.057-12.801L96.431,371.853z"/>
		<polygon fill="#192828" points="109.033,383.796 109.033,350.583 120.197,350.583 120.197,355.935 116.023,355.935 
			116.023,362.847 120.197,362.847 120.197,368.259 116.023,368.259 116.023,383.796 		"/>
		<rect x="123.711" y="350.583" fill="#192828" width="6.992" height="33.213"/>
		<path fill="#192828" d="M134.398,357.253c0-3.088,0.445-5.006,1.338-5.752s3.117-1.117,6.672-1.117c3.635,0,5.891,0.4,6.77,1.197
			c0.877,0.801,1.318,2.691,1.318,5.672v4.613h-7.031v-4.412c0-0.641-0.08-1.072-0.238-1.299c-0.16-0.227-0.461-0.34-0.9-0.34
			c-0.332,0-0.564,0.1-0.697,0.299c-0.135,0.201-0.201,0.646-0.201,1.34v19.432c0,0.613,0.076,1.045,0.23,1.297
			c0.152,0.256,0.416,0.381,0.789,0.381c0.318,0,0.568-0.098,0.748-0.289c0.182-0.193,0.27-0.463,0.27-0.809v-0.58v-7.209h7.031
			v7.41c0,3.049-0.453,4.971-1.357,5.762c-0.906,0.793-3.137,1.186-6.691,1.186c-3.594,0-5.836-0.404-6.721-1.217
			s-1.328-2.723-1.328-5.73V357.253z"/>
		<path fill="#192828" d="M153.291,383.796l4.256-33.213h8.508l4.293,33.213h-6.631l-0.539-6.551h-2.814l-0.541,6.551H153.291z
			 M160.721,371.853h2.137l-1.059-12.801L160.721,371.853z"/>
		<path fill="#192828" d="M183.352,357.253c0-3.088,0.445-5.006,1.338-5.752s3.115-1.117,6.67-1.117c3.635,0,5.893,0.4,6.77,1.197
			c0.879,0.801,1.32,2.691,1.32,5.672v4.613h-7.031v-4.412c0-0.641-0.08-1.072-0.24-1.299c-0.158-0.227-0.459-0.34-0.898-0.34
			c-0.332,0-0.566,0.1-0.699,0.299c-0.133,0.201-0.199,0.646-0.199,1.34v19.432c0,0.613,0.076,1.045,0.229,1.297
			c0.154,0.256,0.418,0.381,0.789,0.381c0.32,0,0.57-0.098,0.75-0.289c0.18-0.193,0.27-0.463,0.27-0.809v-0.58v-7.209h7.031v7.41
			c0,3.049-0.453,4.971-1.359,5.762c-0.904,0.793-3.137,1.186-6.691,1.186c-3.594,0-5.834-0.404-6.719-1.217
			c-0.887-0.813-1.328-2.723-1.328-5.73V357.253z"/>
		<path fill="#192828" d="M202.943,350.583h7.029v26.383c0,0.598,0.078,1.021,0.229,1.27c0.154,0.244,0.418,0.369,0.791,0.369
			c0.332,0,0.586-0.092,0.758-0.271c0.172-0.178,0.262-0.441,0.262-0.787v-0.58v-26.383h7.029v26.584
			c0,3.021-0.449,4.922-1.348,5.701s-3.133,1.168-6.701,1.168c-3.607,0-5.854-0.398-6.73-1.197
			c-0.879-0.801-1.318-2.689-1.318-5.672V350.583z"/>
		<path fill="#192828" d="M222.736,383.796v-33.215h8.008c3.488,0,5.713,0.398,6.67,1.191c0.959,0.791,1.439,2.686,1.439,5.682
			v3.475c0,1.529-0.25,2.693-0.748,3.484c-0.5,0.793-1.305,1.309-2.406,1.547c1.184,0.455,2.006,1.072,2.467,1.857
			c0.459,0.789,0.688,2.012,0.688,3.676v5.393c0,3.023-0.484,4.932-1.447,5.723c-0.967,0.793-3.174,1.188-6.621,1.188H222.736z
			 M231.803,361.267v-3.693c0-0.693-0.098-1.139-0.289-1.338c-0.195-0.199-0.596-0.299-1.209-0.299h-0.539v6.949
			c0.068,0,0.172,0.008,0.32,0.031c0.146,0.02,0.246,0.029,0.299,0.029c0.506,0,0.871-0.088,1.09-0.26
			c0.219-0.174,0.328-0.447,0.328-0.818V361.267z M231.803,376.767v-6.271c0-0.693-0.098-1.139-0.289-1.338
			c-0.195-0.201-0.596-0.299-1.209-0.299h-0.539v9.545c0.068,0,0.172,0.006,0.32,0.02c0.146,0.016,0.246,0.021,0.299,0.021
			c0.506,0,0.871-0.084,1.09-0.25s0.328-0.441,0.328-0.828V376.767z"/>
		<path fill="#192828" d="M241.631,383.796l4.254-33.213h8.508l4.293,33.213h-6.631l-0.539-6.551h-2.814l-0.539,6.551H241.631z
			 M249.059,371.853h2.137l-1.059-12.801L249.059,371.853z"/>
		<polygon fill="#192828" points="261.662,383.796 261.662,350.583 268.191,350.583 271.688,367.599 271.688,350.583 
			277.779,350.583 277.779,383.796 271.229,383.796 267.715,367.519 267.715,383.796 		"/>
		<path fill="#192828" d="M280.756,383.796l4.254-33.213h8.508l4.293,33.213h-6.629l-0.541-6.551h-2.814l-0.541,6.551H280.756z
			 M288.186,371.853h2.137l-1.059-12.801L288.186,371.853z"/>
		<rect x="93.342" y="344.712" fill="#192828" width="8.416" height="3.258"/>
	</g>
	<polygon fill="#101B1B" points="270,219 270,208 246,208 246,272 253,272 253,243 259,243 259,232 253,232 253,219 	"/>
	<polygon fill="#101B1B" points="278,234 278,226 261,226 261,284 270,284 270,260 276,260 276,250 270,250 270,234 	"/>
</g>
</svg>
